<mxfile host="app.diagrams.net" agent="Mozilla/5.0 (X11; Linux x86_64) AppleWebKit/537.36 (KHTML, like Gecko) Chrome/127.0.0.0 Safari/537.36" version="24.7.7">
  <diagram name="Page-1" id="cotr2jhXSxDVvd3Ly41-">
    <mxGraphModel dx="1434" dy="794" grid="1" gridSize="10" guides="1" tooltips="1" connect="1" arrows="1" fold="1" page="1" pageScale="1" pageWidth="850" pageHeight="1100" math="0" shadow="0">
      <root>
        <mxCell id="0" />
        <mxCell id="1" parent="0" />
        <mxCell id="rWvnj3keseH3NQzJO7Qt-4" value="" style="shape=image;verticalLabelPosition=bottom;labelBackgroundColor=default;verticalAlign=top;aspect=fixed;imageAspect=0;image=data:image/webp,UklGRtwNAABXRUJQVlA4WAoAAAAYAAAA9wAAKwEAQUxQSBUEAAABkMRse9pIliJFGopUaWa50lJ7q7TU60jLvL11lpk7p+We6JielpnxtnNLj8vMzLvpQqXhmWW0lEltx3H8LyciILht5EiSLhTQhi/XbZgXIA877uLreWUIXMumnsGWdxIBWFGnnsAlXl+qATrVncFE7ywNQJk4g6neTAAYUKweJq9DFygjJVgCAXATxM0K3j5xEFgagKmHi3cSGmg9jmvAup0AZo1KSnAMJDRQekANlNl7XBvASYC3WdWpHBOg3HZU3eqR/j0lpY7SA2ZNGa1HiBrpblFQA2rc4QTXf9MIYRIwMFxuTMUCm5QbcZFZ5fvP/8hQq1VgqNa4PW9eOJmbOggKgrF1DY13lnIY1PgZjN9jjJsv7543qFruqKFx2RMm4Xl7HtdIvG8nXJ57MDm6Ws4ooal6vpV6rYbDayTskPzyxkhOCStSRY1MXX+NckYIOLjiqxSqb05unxcOSBEtsvDwmZIzpoEloMRPYEyCyY93tieGa1KjrLZ++7UvmEFqDcPVfVQYjx4aydFhRUb0ql1x+MFbzCBjDeUKbSew/LHlpobLJILSbVy64QEmyyFA6KHj3Lc3t88brsmAvuPW5Rvtf1Pch9gZjFng48ebRnJ40MOU9R2nnzCxW96chzEbHH1j5KaGvUho1voTrdhdWeFs8+XtU4dp3qEsOmv7tUZsKSQu+PbysVXDqlFMdLRI/fYzb7GlBKDcpDx2XGQy0frtD75gS6GRki1vsSXEYOz7j+8/vv/4/uP7j+8/vv/4/uP7j+8/Xqb5+u69IrN5+uFrrRLi7cncvEEKiolMAiElunD7tbcSoWDkJvctQ13GRWYVslkWmrX9TKv3+fjUSA7vi7r0AgTVSEw/U3SbbNFF7uxODteQpWeg2TeebWh0j7fbUV/9tRu0XT44b1A1svQUDCrBcdn8Azdo3z4IWYb0Rr60Xc5NHaQiS8/BardxKxrML5wTgwi/q3qRF2+M3NSg7cyTOFGLrjv84AvHBNGQXnTMx6fGqtH21elZnNotuvDwg1ZeE3VwwJeHB1eNDiBLb8PDsujC9de+OOoZhogSa0qgrs6lg2xn3oeXWmjW9hONThMsgUYKzYTVKQe4GonrZ2hHb2kTY8370tXZV0GW8oC3Sq+4ni+yTqw1ZvtTIz3cfiYd+B/1rU3nTdxGmhwGRlejLuWDa/aKDUP8lBRu6vvP/8io++V+o2VNUXmaqUaSs2/6tYi8SfdFEjQoXqCQCSJJGkybAk/Sq8m+FqYn0xdJ1j5pU+CEBDeroAlJblaBEhKuEWyS7GYVoEfiNYIkJL1ZBUyAcwuqkKYkgKhxoQeOmiLnHmBqOCVACmRNFyeQbkcUaD2A1XBKALVZHW5R4D4cxwRAtyPsE8B2S3n6sVkEAFZQOCDeCAAAcD4AnQEq+AAsAT5tNJVHJD+iISrTyTPwDYljbuSoFvsYUWAB+ADgQLdorr8b+WPivd/81/e/226YjuXw9zmiTOx/KB/rvZt5hH6K/4v+udeT+Segr+W/zf9l/eu9EH/P9QD/i/1X1ivVa9AD9VfSk/bb4VP71/w/2o9pT//6z1587CPP1dX5L+91Qe4YGacob/fLl7Aja5pEz2OzdFlwzYRqLxBQTv7qa8WAfbS8QURd2svuTIoWejuXElcGNoWZOy1H0KNMQd6elZkvne9KdQUGxM+18AuT+3WvABQVviBgpyC91/9+POlxHuR6yns6GleopR/+5bE3lYwB10976rnWY9VEAI1hRWxSIe9QSs7vcj4qs5RE9nPGqW547GkpE+9xuzsj8LJlrabZXdmvK8Tnc8Mu0uUV9hoEb8hbftf5uYGikzbKtfjF7PlhGJPyrj2fe5ESbBBQZ4RvomA7yP5mgZY0HQ5cxYOi6Gc//TS3QYUiJNggt++xiwNL2MbIGtYi+STNsq11dTVn/xThn9DLiJ8yFrZsT+QtbZX7opRewcY10DWX2RtaWK1W+nnV1qeWyhMzmD5TXky/l2W89BMMIk3pn0Jc0ZH3KPsGV+M6ekwVpSwjtV/sDfIHnGZ+7btP1ByHV22l4gokK6ZUGEUBoh3rRAV9Mh58AAD+sZKo16LTep0K1hN2+TVRRyMi6j4aFR8KhVEcMprjJGv89yBK90IxdU4EvMKNfEE5ElKknp2XbHP04rh/BlraOsMeVOteZLHv52pqpNKpGSBLfrArJsgQr+Uwm60QIewczzRSJrn+WDMB9bkXIt4etcfqfCHN2fWes9UHQ+4GMxQoAIKpz/LnuMKAxWj/TRt7yVl3dr/hxqowEBT0FF5nSd/zNBYAR3j/0hbEkr+HlfcNWw7NjOoiyvWhqUpg2boP4w3VNqvTV7SNWjJgvf6CW/h3AACobiY3G0CokdP5hoXFm6k7BCW/+FQqiIJJ8PLB6hXtjKCFYoM0EnSayvE6KF3h97m/TxdyZ4puhA7LZvkJFh9wvWrHuCY1GVHyHHEQYa4rkxHvsjENIV8DJ+1irksKwxiI5dmdrXucfOl/x90zMkaGSBia6SBW2ufGIrTIB0gYt12PAFi0Oz4pPChF4JlYK+rJYPYCINbYoinHLG6P8bdEUofyMIaCEd2dIQnO9H0VBZd/VHNOeb3D0ryXuuA08PWLU4ZHM+9/07n2m+q3xpNJn2ne0Obzve/CbDMJFuOP0fXWkT/ml+wW20XiiwbGGbHRyTwJNt8ohOmFJHa4B0+LAc7OlJYZxJLi0Nf3rzCOEexjrtcg/3OGbN7NPuPwmAn2v9Ue/QAHASFNc4XJ6P9VY0KvPAitsN22gajNFC2kaOTNa82F7b6wovXcIPzKKNilaAvCC3QXnmvF+TeVwbiW0wLb8AIUg7Gs7BwYywj/i3jQO+ucUcxp0s9cRKCJTiv4cNOJWX6aT4m1g0Wl6nkdzYY0EVCN5DQAG9ZG4By6tW24tmpCaf8tS1EsKA34ly8neFck/qWXpLICQjM6B42wnlOnp+BbDslyuqT+0LRYRsWKpDw58P87I7zu5OiA4EMzESGfVMVpPPAt+1J99AjSks7QBrnYKE+IpXtEVdze2rgADLHGZGGN8g7QexDz4sKGEz4+zWjDnYM+W6UfmDXM5JXEAmkPZcZLZCKQDttpV+vmWddg1SKJe6EWUKgj1FGrkaiy6rHvpQQL2Jyr+/EXyqAGQppnQ+GrwQ7NvIBz87rUm5GD4YEs/0rQ5nL0Zfh7D+osXzpK0QPsqV0tRq3+YHlD8iobyFYfoWVQP+9ZoDr0n5Pmn/Xbkos1nsRYArKeUVBLwG5o/wO609VB1idlTged8MUgJM5X6HnHI8rV9CNRvMVYwRwYyYcQewjoEtYDF0PXN7ajlU42HgXdB8j7V9nw3H6ImgKlIjwLqBxEcTyIh+D215yQc6T+CpIYsNvqsN6KAzluVH86zeyw0mfnCfQaZTgQzumQ6j32UC0JHOTndDT16kSyI8+/y2l5a+9ExMLWLsRPS60zL90h8uegyzyr56rWG3+nHwOPSfj7N3VPEk8iLB9+ypGjEA0b4c6Lz7ueZIgM7Md+7OA7sVO/uLa8eAKdzkYCAydNHt3vFOnUwu1ErbHnuPbO1lDr5Dn3dmT/ws0ptyN/UOKgyoVXNy8y5j4v8knN4o+d1tvamVu11RyOSOVhBNFup4whCNSJk59n9sN5c592V0CdnwhHM1LKb4ld2zlesUnC6LrtgmyqGlVoKm+4Vl3wRWsiK9pmi7RWOcTfQvYJgsAl3Zs52vo8xB4WkGbkFkNvXnjbRHtpQMkFCwnGH3kVEeX31xRx+hqhe+qMCTzf01ONgfmb3qaTRD6v/8xPtFYSQx5fI8yv2/YTux0QLxDmgh9lajPEjcR4MUmk9nClJUnmt5kXQsCjQl0YohtvEz6WsAtD+Mhoq6QxEq6iTzjnAqNqjeTn4uLtWQzUwjCi1G50TZTM+3SnVGKpwbhgWKhtELtikSoVxscXu6EWnFkpUEcwKsshFO5QsZquBA11FLuVbNP+WXiAaO6X+OeKLZNgAPoh4YRX/9csmdDVles2l015T9uVrF8sdL3j5IRl7nW558W7Dx1P/NqTG3C/HfNx8wHQPVIFKR622atUjH8mJiF4AKUhSbXVwwQez1WuCprGGYxsy8TNvSRzD0HHNcZlvhLM5CHgPNU4CcClVlNOT/YAxKe+D0a++K/qLm7JPdqXPVaovmYczbKJvm4ArmFmbdzcaRmiyrDmpicLRPAAD4D7A/Oa0eGNAmCYma5Nzq7K7A1Fxm6KuPVbvVPV7jvvHzGNI4dae/jui2/Fc13Awdlm1bmvATWuL7E2UxL/XxHawJYftc7gAAfNjY1dljegG9sqRQVx6refHDG9yjZwbBlOoK69v2690XPPUMTa+Bnf1T6f3EqgXyb3HmbN4inEbdW0fZ3biuvMWhD8vt6Bo41Wmm89y6gImS1+HRRAAABFWElGugAAAEV4aWYAAElJKgAIAAAABgASAQMAAQAAAAEAAAAaAQUAAQAAAFYAAAAbAQUAAQAAAF4AAAAoAQMAAQAAAAIAAAATAgMAAQAAAAEAAABphwQAAQAAAGYAAAAAAAAASAAAAAEAAABIAAAAAQAAAAYAAJAHAAQAAAAwMjEwAZEHAAQAAAABAgMAAKAHAAQAAAAwMTAwAaADAAEAAAD//wAAAqAEAAEAAAD4AAAAA6AEAAEAAAAsAQAAAAAAAA==;" vertex="1" parent="1">
          <mxGeometry x="318" y="250" width="107.47" height="130" as="geometry" />
        </mxCell>
        <mxCell id="rWvnj3keseH3NQzJO7Qt-16" value="" style="edgeStyle=orthogonalEdgeStyle;rounded=0;orthogonalLoop=1;jettySize=auto;html=1;" edge="1" parent="1" source="rWvnj3keseH3NQzJO7Qt-8" target="rWvnj3keseH3NQzJO7Qt-15">
          <mxGeometry relative="1" as="geometry" />
        </mxCell>
        <mxCell id="rWvnj3keseH3NQzJO7Qt-8" value="" style="shape=cylinder3;whiteSpace=wrap;html=1;boundedLbl=1;backgroundOutline=1;size=15;fillColor=#000000;strokeColor=#FFFFFF;" vertex="1" parent="1">
          <mxGeometry x="170" y="285" width="60" height="80" as="geometry" />
        </mxCell>
        <mxCell id="rWvnj3keseH3NQzJO7Qt-9" value="Camada bronze (s3)" style="text;html=1;align=center;verticalAlign=middle;whiteSpace=wrap;rounded=0;" vertex="1" parent="1">
          <mxGeometry x="250" y="310" width="60" height="30" as="geometry" />
        </mxCell>
        <mxCell id="rWvnj3keseH3NQzJO7Qt-14" value="" style="edgeStyle=orthogonalEdgeStyle;rounded=0;orthogonalLoop=1;jettySize=auto;html=1;" edge="1" parent="1" source="rWvnj3keseH3NQzJO7Qt-11" target="rWvnj3keseH3NQzJO7Qt-8">
          <mxGeometry relative="1" as="geometry" />
        </mxCell>
        <mxCell id="rWvnj3keseH3NQzJO7Qt-11" value="Tet&lt;font color=&quot;#ffffff&quot;&gt;IngestÃ£o de dados&lt;/font&gt;" style="whiteSpace=wrap;html=1;aspect=fixed;fillColor=#000000;" vertex="1" parent="1">
          <mxGeometry x="40" y="285" width="80" height="80" as="geometry" />
        </mxCell>
        <mxCell id="rWvnj3keseH3NQzJO7Qt-20" value="" style="edgeStyle=orthogonalEdgeStyle;rounded=0;orthogonalLoop=1;jettySize=auto;html=1;" edge="1" parent="1" source="rWvnj3keseH3NQzJO7Qt-15" target="rWvnj3keseH3NQzJO7Qt-19">
          <mxGeometry relative="1" as="geometry" />
        </mxCell>
        <mxCell id="rWvnj3keseH3NQzJO7Qt-15" value="&lt;font color=&quot;#ffffff&quot;&gt;Processamento de dados&lt;/font&gt;" style="whiteSpace=wrap;html=1;fillColor=#000000;strokeColor=#FFFFFF;" vertex="1" parent="1">
          <mxGeometry x="140" y="410" width="120" height="60" as="geometry" />
        </mxCell>
        <mxCell id="rWvnj3keseH3NQzJO7Qt-17" value="" style="shape=image;verticalLabelPosition=bottom;labelBackgroundColor=default;verticalAlign=top;aspect=fixed;imageAspect=0;image=data:image/webp,UklGRrIVAABXRUJQVlA4WAoAAAAIAAAAowEA0QAAVlA4INIUAACQZgCdASqkAdIAPm00lkikIqIhI3E6SIANiWVu/HyZVOJmM9fi69+WXLjbT+EMon8Y/d/9V92Xv3/sHsA/PH+O/P/6AP1h/W/rGeYD9bv0392T/Xepj/H/bN8gH9N/3fWAegB5bP7sfB5/Yf+l+6/tb///WLfHP9y/rHcH/Z/MvzB+c/a7lodT+aH8a+x/6j+9ejPebwAvxH+W/7H8x+BBAD9W/189dn33/XehP1+/zPuAfq/xGFAD+W/2n/mf3r15f/L/Meej88/zX/w/1nwKfrD/4fWq9eX7l+w/+p//7IaKRoHHDGrze7ohfBL8vg4y5OO50jJEjQOOGNXgCotsgYRRYls8U+DGrze7yagGNXm9wetp5dQOjLorVrsgbIjsutxyFh5VDxCjWfKmoBjV5vd5NPvQufS3xV++HpOmSmtLqxgj6MDQRf2lZormvSfNq83u8moBjVWn/0Z4JJSjS3L9jo/GK/E+McC4tLwK5WdBvGgW9ZecRzo16xiDP7IyRIz2+RcXs7DavB2Uo/W/U2vtYx8/6YAYfMsa+1oBjO4xuRlo/vHAgwT3WclWf+kFMzrbqJluL1gkXWhECDp3qF4rkL6uNpe8WsREK/02abScKE5sYEi6XZUg+DCsOweB97eNIF92Y6XAa+l/+E+g83ALhuV0ZuGCnjnVuF/4Un5WeSWvRh/iosjtKyYWBUm7F5PnLivzykNKRea5BjYREENoQ0te1X1F8mI9p4lvd435gMR6bw86aR4HC0WXF1IYaqZudOLGL/LS55ksVlvLTQtsc9GmhXa/0OlR3srBALabQvRzal/fZYNoHCLeDktidlY6wRc9jYw6B7t6STpbz7S8ybjLxMjP4VHPr7iVLXcLFesDQFqvVyCQxEIlKrjSfzi1rzrf7tcQS4/yM8+rI+cnsmrzeM0pXG3JXlgbGLKeY8r3qwbeM8Sb6XxgWrRSFikyZ8korJ0RSAITC7jeXZNxaA9glsY92s88RWSvbQzMGHYwnZJc/qau1so6xfjDp66zwDGgtR38ebjL8ZfRd8/OAXyG011LeVNXm93jftAYIfWqebV5vd5NQDGrze7yk6TzavN7vJqAY1VAAP7/liAACcm8q1oUTeVk55vuiBk1rEeNW6xtDSlOgZwI1f8BVh1M6OPn6XScv7JCalUfnJRBw50pagjB99xg+wQAupBRdM6TfJFTD5YbDkNDRg6SQtBoRye0hn70BFgkX26r4cHFtV0e2RYrzLT9JK2JNhgAJUFVwnKVNiRXmGaOpSZBRg+FDXQXqv1VxvzcMgc9p8JEeWb73r8Se4y1KT+9ggpqjVJIEYXdcFgZuMOKKwYAAAO1wEjOlsVV8oISYJpxeMkJMWGbf8oHDcKmEquYip798Zk8eUoumvX93Px2ZSwGYUT9ioFWY+YrkoReh7Cmmfy8ME+/niJgwcJ+CxQaVhXaSxzZ9SONWPJuSEVFgvJr0c+BZlSVSAV/Nn5oMMntP/p/870QtwdSlYyAn/xe2ZVV0w+CNtESah7DqnD/ocNMZcUKNmBm2hHHRM4iZDLG4y357SADFZrmmDwOg6vCjVRQWsgB/7y3c///r+Z57YzjveIHKt/AJbNUhD/URnQaho+uHiSmf42vif0/LqJCByRGHph00AnmnhTOY6Jj0JNuruSIGa+yHS4M0E1u8o0jl09zDz5/lh0qHK7lfxQWtbk4PkOgcM4IAAZDUc199uRXnh7+KvxzxDKMwBsffMdihRJ/GWTMpJSO3Hg+vS3CedIR0qUWYUevkfo8gvrOUF7oYo3UG4xBJ7KCwPFU8Fi48PdKe2vUfRnkzZsJ23CioHfr8wZIgrzZ3v7oAiXfWoKV2zkeQDRsE1yErrBOlTk6vWRMt9hZ/+vTGgnWvunYRqPX/fZ5kMndndGGuaKZWSkXFs1tzupQO0eZDr0HNFDhP68nHSHiM81cBK9h1VHH1RGEBE2B7bSiW9HZYWceEPtB95eg56+9F5XAicI27/gGSYVbwWZu9xuSWMgsEN3DHm7okm8rhCLSXnuSDarTg2NA9/PVUqJsHzPij8cQb+55sTu8Eq1jSANqujpYg4N26YW4HBW8L6gVgp81CfchhqJOwPS03pWyxcfKAzaGINPquutK7M17KW4JWYADTByhD3zRjcWra+2VQ6+h4ckha5LRduFygsIsjSgsWXXYf+drzAAcnrH7uGKmyWwGXQ18fbrfiMbrFdTFEItg0HgT93D8skPe4unjuuvvNZCv8vnUeAODxV6pD9wbsNOEtLq5CnWzGub3dq9hr7LfjyyKDwylF6K+v2ko2qYePxUTcuEd9LvB7A+VuI54XLEw9e4IkpfBDR7VrGRKBi9E9aCUE82yv3xuJ0ySQckb8AjCP7ll2/FLjS6cKWYmfUPpVlSdVGlTsLrhPTuzfNiGWzbjekCNqswxYHCslG8IR+CVvFL+NgueoJuOXloQtyf4MuUlkoErzvvdfxUaC0ru5YObzMrQLpkfoTs7jdD+BxZSbJnE3kNNd1m2xonD6CD9TDD8+sRPbKPeK4eq9e5GnOtDuW0TcraYR1OpQqs8iPlRQAm+6peH/bRMJvdVUb5tXM8w0j+F6EUxgUA4HVxF/ppp8Jrv7Pux65jZyGyY1JQM5rvuEuVGOlEXlghys+EzBm+ixPSCAeSZaxjDofU7/MRr9lZ7tKSkclYkHNgNCHlH6AQ5HsO1g8A056fq+qPsT0HTG8nXpKEd8m7HXcy367fIdp+qjIbytabWqHRQwlSnwl/Loyq3pGIqgodeNrKkOdQiTsoLzBqvOqkmPXgbi2T+C6ZBOwepCXpJsy5tUbHw4SH6EsPbTmK2/QTlBwW1304AkYHFz/gQfLfnQrsGyoue5kDitJBh9VKjieW9xFWF/QUX7muK5RGrp2d419+uU48kqCr3AyyX0PvJxm9ftcVX4BRrkLV8kdRfu9/stlVkJqxwYGV4SFAOSo+5nSRD0weI25dBXabbLCWZWZJ9oy4Hy/vF529wD1gWGoSrQ0kndRFlyCD+UKYXqsyGpO1sOI46jOjz2S4e+5M28jUINogR6sd2TLqgLMeKOpdpelwW7SwaEFkxjHUsIb9yQl77z/FVySYh9b/0//mQ1j6CH1RMvwPnuQgQZbQRS8ZOpusMS7t61/gDIBPcwY8IxfQ5aq2rh5CobI3y+z1soIA22Dzfbzqljuqad3mYWb92KPdC86zaV8n2b7+Kcd6Z7+mm0j/eOl5q3GE4EiHQ918ZrFXLccOmH7wdfJk/lxciXPskgX4RmOCPPDguAXrQ0yMQLIMk2YHLm9awooEFsBAXREu4Gx8HCvoyw5GxBUBQvT7TPyPFw+P/oNipHU5BSRopthP60QhHol6POtFAFV7Dcl72V8IdHP/QLQci6uPksNXVdu/LzRwcQRzgMSQg9Wl5g5d2RRnd2MDciNxl6EVeZLHYLQmQaYWjctWBe0Edvq7ARDqTnKzqTSi1DyJXFe9Dqh5aOladFjqAI0ouSFCjiANiAD+hQ8agvFF6t2w159dkLMZX9kr1rgIwhAbn+5Hr/JPG5tfs1KVPuKZHabUxNmpCm5kLL2PpsUuzP0nmFhF06QyKBdD9z7KG1Q85E5ADY103W34C85FjfqzlYzvMqckKtxQRmowU0T01WTMjm3lEuYJi3b/xhk/WUnEu1laXmNNb/wZsz6OpjP6qDw8XQcKYWC0xWJ/cX/49b3P4RtI1Q9yrD4xGJ8IhiMo3LDVBMhtaReQtn9PpN/L4Kubr2B9eh/wIwjgO8Z95HIq4h8l61OxUp5S6aFLECGOERLp1KpOzVL7WiFGqghPrMvI+CFYCo6dQqDS90LcDKJoCyshDimBiwj6J4FlEDNmaRLf+VrbkkgufwEUZ1i8NG4jtnt7UwfNXyrODzHST+i5wfb7KPS9h3Gbrn5ZCmPw06J8BmBoCoB26w+PC0RTeCXG6ooohmd/hwJQoCN4UYq/Uul8Ol5QjW0k/7HyulZIcItLlbn/tJtBRWXp3M2+3mBkTvU02Dxx63f/wU4vbS1q9/+HNj9IdMNTUH5X8YLrYIhDHFuB8wx7QLMBcDWEhBCE8bCiYugWa5FXh/BSork3kS2VvKuLrQ+5Vc+bwEqPV/gKV6GLa7WQmhcp8Z3eTXEY+I8EVzr9T7R+MN/FIoWDwccecty+pBYocSLt2z6xqhi3X2Gjd+vYJIjsSbvL8JCbmWWUWG5CPtsgSGW4ll7pt630nZpu1t9lRjMklhOEN5TZmj1kOGNxuGdlDQ9D+Jpog4X+P1eVgkGkNR4R2v0Y1nFlPq0cn9eDRVucg8LGe9wsdAjqoAsibh44MNwgd/8Eh+PnbxDDj82/nwBhALbITJWEI309Dwc1RmV7UpoSy9TSptum6C4tuCsiqYYZA4t4E+B83PzaBx8zmFlWz9MpLmvHWJKxBhcj3Awx2pRWL8g09fFlAuX7WcgsbTfmLwEyQyMdrTBmAy/ALU4Hq6ARUlXBLm1Ml7Swd36HUdZrIFlL/766H4YOvFgGnIr2luh3203n3Qv2pzeXwpiYSVvjRrSFy9Nb3Np9b0jqVhitadKQCJD40QliOsAUz8ojSxbnJTUHT4od51x6f5BfHtKpljrhHBrx40BlT9OiiOQ4XNmWqJTbfFXGlyYBAYzUMhxfAqZ7UZPq0+zByVROAQvE7sOY3f+3zPvoDCO3aLKRZcK9XN/Gf3PVJLqDjnnYb1JQqfF5VWGgTXiPYg1wK/U6muo3q6Tlo/TVF3jELXtANL/8E2KommAl9pgrB1FK3WyUS4wVPkOn1T/Y4eAA29v0fY6yhdxim3kyjY69m2GpGSutFMrmZREreLP6nPZ9oJ48MsDZczDIklf7H4BmHT2YbCS0ssq+sWlA1DXZu/arZI90fboxOmPLvkOr49TxKJvw+4q/K8osk+VpA/25dwpMPuR4LCWxkQsPUUfvG7p0KiXfXfuMpypEJSc0oFpPJF+0S6XWF/vQXQGpWS9kmWPvYgCAf7Gx6bJyWm/zi9DEw7HseMYvoNRvfhpvac6wgibp5HJ6sG2i5axb0+nz1WooityKsKojyH5FcFbeTZUM6A7Z3XlNPOEndpwPj6fU6vU3Ttyl81SpQfTbZ8FY0UzRnWBkbyUwyBHu0sDSKMMxHsPwXYKtH8V//ktnyekDxF6rT0Pp4nUT5ba1VngymzQS/dvwlZRqHvV8be5BJXcz2L2HywF3ezI1NXfA5K5s+Yo0I+ZcZWK/8Odq2ldpfqtujW9V8RFfbKiEWY5Ac0xHPF0rz2/7P+4HmCEPXoRwWDMcZBDeHbUXsBn4+Z0KrsLX97qW/vMBJqFfqewk02qkaWoqmLTVyN6nDr4HdB2enDXKYBJlpXcW11VMy4Zg2tIlygaOQB5imdB9v0IV7uHSwjPHuonGKNB2056QSW9HaqVyYATzvzmQe1VyCIw3hL2cA0/DIAAAtA1af7KlWPrNKMiPcq3cvJfsA3s6UcAlOiLYRHz4oQghjLJt9yxM1thBi9/XEqUs9/+PNfEcytIRfId9BjkujA+F0+iEczLTbKIGaQMKXVAizjhXYrRfGQXqH5pPvxytUfmSmLKhGIedFL9joD1b3+Y89S9q1EaXqjSyXdd1ieAGesTX8Heyu0H0SOs9aum7tpoNee12ouTt62dTAaWqgs8JU3tZbyqcd5XGupv9dxDWxllLjW2/xZNWsNE0Lbt2xh1hiXhbsUZ8fFj7+qgUVDblHToY6X2c2q2QJaZZLwej5is6frtyBK0C6HVIpQdUXcazXOrVwpP++msy5twHyPDaYnKBRgc87rK9Oj72psQxlOddUsShU+NKGDVHDQv7ys4NBaHH8rnGto3jRC+/81ydcHDuaQTG/QZ+f3WeUyJyRATl1ZUqaSe/qH10tvWDVONEBeD+bhg/XH2E7+P+cTrWvHb8G4dBkUru8YpQjBtXzzCu3f3QT2nDXDgJtjPsbX9YVfTDhPGTJTQjT7hXTdDMujNL+Z9QagcZFlxYT8DoNRwxaCHoxWa3zzG47hL1ls3rcPm6RfsS6iD7xZ4gjXDFeV+2covVdP50ZYQMVMCyEyAzd/kyVEdDYEB20tc1vMmyZDm3HB/2Mst6CMZsIIo7PJJwecoOAY63gtJeYiaaLQaIPnZhOA7EbreiQtu4wuzfCtdzr/SlN2cq31lCYWzMCYpxAQ5wh1uuHuezJGyeJ4/vu3v1ab7d6vCh5IqXQZ83COpe435ZHfSdXNk8+NsMQMcdbAxOANq0xpd6v3EaMmBispwTTtMOMdncxhGYEXbRbV3R+Pe69GipzqrA5K+boql2mGLAfGw52IE+LrsIajpr494hE/0P8P10w79oxVi58uWylsS33Uu50ZhJKHRXF7ARkZOUHuo5DpquO7cWaaDBLXqrx8nLYy6qFTEpRd5eVbQrdX3+wwawmd7G2Pg9d+ze2/8T0Mmj6/zbE+fu+4nWAwloQCFK9UrbJkrv3NSRERzf+7yFjAuYDFaAyzua/mGL1UxWIOMMLSOhwr3efBemJWcPBn+S32TXpjCCRl7n0mGAi/v7Jhp2/iiEGJrSF23w6p8WUCy2m0haX03Ak31Wi7y8zmmh3H5RX9Q2PrwtlV+ec+p/CqCOnhc5vgEQRvUuI3l+iZYb+doBSw2dKi7sj4A+qO6Ias6IhneYjwN1TQ8t4ZvQcaz4UgRqq7ZOq6zL2K8t7oSrBkAscRKMk/JCFsqDXDvPUEs66krJLQGbQwNr6l8xZD/CPjP9Id0O/3gkIpY+i1sAJ/morOpNRHTiz0JEa/L+ucKvJDgNBQGPmfXwCEdIgQHRHZCdjG2kOhyWym1Xw6VB6km6Z6fkJZTVfGvvQ0CY3uezVffdmEgdUyTv/zSgg2HLh76cfC2t+BKTZ3tnAohl2rjrg0iwaCaSa5UtzKji9agcgN1VOtbBhRSOkGJ3YHft5atWJ8JPYlrxrT22O0kQsgED1O7AUomrLZ5m13nKVx81KNmb7AC29qni0u2f7TjDfzPFaOVaYxPL0EHDCXHxF1pbCZbeeKq7snCeHO1bTKl17OHN/I7StEWo01oQAAAyn0Xk7uLKX9mr2FjZEOIyAAAAAAAAAAEVYSUa6AAAARXhpZgAASUkqAAgAAAAGABIBAwABAAAAAQAAABoBBQABAAAAVgAAABsBBQABAAAAXgAAACgBAwABAAAAAgAAABMCAwABAAAAAQAAAGmHBAABAAAAZgAAAAAAAABIAAAAAQAAAEgAAAABAAAABgAAkAcABAAAADAyMTABkQcABAAAAAECAwAAoAcABAAAADAxMDABoAMAAQAAAP//AAACoAQAAQAAAKQBAAADoAQAAQAAANIAAAAAAAAA;" vertex="1" parent="1">
          <mxGeometry x="281.73" y="395" width="180" height="90" as="geometry" />
        </mxCell>
        <mxCell id="rWvnj3keseH3NQzJO7Qt-24" value="" style="edgeStyle=orthogonalEdgeStyle;rounded=0;orthogonalLoop=1;jettySize=auto;html=1;" edge="1" parent="1" source="rWvnj3keseH3NQzJO7Qt-19" target="rWvnj3keseH3NQzJO7Qt-23">
          <mxGeometry relative="1" as="geometry" />
        </mxCell>
        <mxCell id="rWvnj3keseH3NQzJO7Qt-19" value="" style="shape=cylinder3;whiteSpace=wrap;html=1;boundedLbl=1;backgroundOutline=1;size=15;fillColor=#000000;strokeColor=#FFFFFF;" vertex="1" parent="1">
          <mxGeometry x="170" y="550" width="60" height="80" as="geometry" />
        </mxCell>
        <mxCell id="rWvnj3keseH3NQzJO7Qt-21" value="Camada Prata (redshift)" style="text;html=1;align=center;verticalAlign=middle;whiteSpace=wrap;rounded=0;" vertex="1" parent="1">
          <mxGeometry x="240" y="575" width="60" height="30" as="geometry" />
        </mxCell>
        <mxCell id="rWvnj3keseH3NQzJO7Qt-22" value="" style="shape=image;verticalLabelPosition=bottom;labelBackgroundColor=default;verticalAlign=top;aspect=fixed;imageAspect=0;image=data:image/webp,UklGRtovAABXRUJQVlA4WAoAAAAYAAAA8wEACQEAQUxQSKMeAAAB8Idt27Ip2f/tx3HeQw1dAnYgDXbnDA3GY7yPDT52J6FSdiAm8tjdiYlY+NiKIDwmacKAdDNzn+ex/3Ff13VfM3OjM+8niIgJwN9jcYIWF8ymsVIDr5rywC4CVdQGiwqan/M1K9345gYuuacHoFrrIyqof8oMYwiVRa713vjnhC4QkdodJ2h48lTSAqummXH5Xd0B1VobUUWDYz80hmCsikbSgg9cencXQFVqY0QF7ogPKhi8sUoHb1x0T2eIaO2LE9QZ+J7RAqu+BeOqCV0A0VoVcYo6vd/I0oKxWoZgXHZPd0Cd1JqoAIe+vJ7mjdXWvHHRHZ0gorUjKtD9nq+gBWO1DsG48u4OgGjthyp03yfX04Kx2lswLr2rB6Ba2wHs/tAKBm8shGbeuOiOzqjtlM73r6YFY8G0YFx2186QWgzFfstowVhQzYyLdofWXjgcRh+MBdaCtz5wtRn9WIiNvrR2o3+Bsp6bcSLOyV8F0YzUjIkKAFEV2cSJqACASg2YA/SAfm2Qq042VSJOkbvd4Y0hTmq2xAnq9Hy+PPz22lUDt80AgMuobGJEMw4AMjscNuKNMr5+aB2Iq8ESFbiBr61nMJIV89+65oitBADUqcimQdQpAMjWR1395i+eZOD61w5zgErNlKigaOBb5TQfLHhPkhV/TB7df0sFAHEiBU7UCQDo1gOvfn9BBUl6HxiMFZP6ZSAqNU/iBA2PnmK0YIy0EAJJhsUfjPlH+7oAUIQBhauOAkDdDv+4bsoS5oYQjLkWjOGDoxoBKjVOaDjoI08LTG4WsoGkX/DOjcft5BR9C5dDpsMJN3+wMEsyZIMZk5o3Vkw5uRg1TILiQV8EmjemaMF7I+kXTRk34OxC1bvVibd9stiTNB+CMX/zgeGzExpAapAEDabSLBjTDyEYSdtghYi0n5eSpIUQjKkHM35YH1KT1HwNvbGyLXhj4TYfjJVsnoua1zCtprEqmhWqEIxVMHBhTdOaKrKJD1y02X+b/bfZf5v9t9l/m/232X+b/bfZf5v9t9l/m/232X+bHbT6r1FZTdMahipgIVihshCCVZ7nohqmRvNo3irFQvCBBdsCSfMhWGVYCPy2UU0SgK63L6aFkJKF4I2kX/jqiwXJaDeOnLIwkLQQgqVjwbjo5k6oce58/xpasLwshECStuSjawfuhL4FKpSg3k6HXf/JEiPJ4IPlY8G46p6OkJomEUGn8ctpPiSw4D1p3Djv7TH92wBwGFCgrDccALQ57JrJv2ZJmvfB4oI3LhvfASJa0wSoAnvcv5TmjaRZ8EYyO/fVEQO3UQDiXAb9C1VPZNSpAHDbHTH69flZkuZDMNKCcdm9uwGigppoVWiPB9fSQjCSzP7xxrDeWysAqFMArpA5ABCnAOC26XvF2ws8SYZgXPtQD0AVNdYqQI+HVtC4bvbEyw9pAQGgKoLIwpcrTpDbqnT4a3M3kCse2AUiihptFWCfx18Z1rMtAIhTESTcNAAQdU4ASNteoyf3AkQFNd0qUAcAzgny3WREinMAkIEoasRVoE6Q5qYlV5xCUWMuSHnTA0BQ479JqgXc7BqzQmS+lmMgLRsKTcjSetVmCFqOXUoLVkhCMC65vjmk9gIQdJiwnOatUARvXDB2BwhqNUWAHvetYPBWACx444KxO0KklgNQhe796FpasOpmZlx8YydAFbWgKsCuz22geatOFoyLbtkeIopaUhXIQU+vY/BWXYI3Lrx5J0AUtahO4Xq+VkELVh0sGBeN7QKoopZVBZnSyZ4WqpwFcsntOwKiqIVVQWbgpHIGX0UsInjjglvaQ0RROytOUe/IKYEhWFXIDcG4eGwniCpqb8UJGvzPJ0YLVaDCLBiX3bETIIraXVFBvZO/CAzZSq4IH24gy27rABFF7a84RdNTp9FYucZb/lx2exeIqqBWWJyg2WVvvDKxUl+edPjgXQFR1B6LomqKonZZXOWrU2z2/2b/b/b//0NdVFX+5ohWonMqBUY0VqqSaKxUkmis5CXqnKo656pODaCoFJJNsQqqvKDtnfc8tBv0b4zi4AfvmZD2zUPP2LeJQKRgKP71yPgJEyZMGP/QqZAqIyMfuGfChAkTxj/SG64y6lz24D0TJkyYMP6hfpAkCml9yDkjx959y5ghpzWFAJD41BwuYjkf+FvjcBmzrMR134zrDtFC4fAysyTp+WIVysxlIMksR6IoPUHjzxlI0vM6aJwouo+bu5G5xoquUFRBQf0pzHLBdpC/M+eywqeczWYDjX/e1hpaMJ7kRu+9L+fjVcjNZIX33pdzCDKVUfwhK7z3vpxXJhDIuX/S6LPZbLYirO+Uo3XjJSVF7418eyEvhP6dOY+e6VvwPnB6N2iheJpZkvR8sip9y0CSWQ6tpI8YSNJzRALFGFoIwUjSuKET1KHf99OmTZ8+fdp/JzeHpCK4l4t3f5FTiiF/03KD5y/7QP+KKU40BsYaN3SGZnAKg5E0Lt4iHcF28/kKzuHaQ6B/40jP6VtD/vL8h9kQQqhIIGj9DQMjQwg+rOuUcwKzPoTg+XvrdBzOJ4/F9r/zLsjfo5DYe28xzPLRvz4NP2EgSc9RMYqzGRhpJI3ZrjknMhhJ44J0BHU+4XeNgYc4fyvo36K8LcQYNx4I/YvTYOLKBWVlZWULVl0cJYJX6SOMP945ZOj1Y9tAKk9xqPE6FKE/eTrc3x/jb5eeec7ZsecNHz/d06Lo+TjkLw2g23TsENmpJSIFrWYx5ATO3AGCyKpwP5ftCYfGX3EK/rYmCZzaBIKkjY75iSEqcE5byF+bFBUdltGizkORc06rgmLnX/mKgyhGcMMB0PREVFVF8hDNldRENFKkeoiIqopUjojmilSp6S2RcQlF0fEXhghjdgBcXqLOZVwm41QqQdS5TCbjtLJE1GUyLpNxqlJZIi6TyWScSj6isRK3W3ncgXCASNW4hBwMhWLPpbwDko84jRBFtDiJExVEi0oKooqEqonUpZ2HKmLVST7iXJQ4QbQ4qUrNIEgqRTgvhsazoclEFUlFU1JFQpVKUEVycVIJ4gTxoskgsQAgIg57+rjucBJdlGgLqIhIIkHD/3BWOwgERa/xx60geUSLAK7N7j0P7NxCAYkSgTTccd9e++/cGBDNRxSAa9Fhz9JDdm/f1AGiCaqiKIC6zbfb75BOrRsKIJIsVgRwTbsc3HPv9k0FEKkuEGy/jBYzApJEFEC9XY+78IZ77hwzeI8GgEgKokDRLsddcutdwwf1yACaSUcUQL32/c+/7vYJ428a9s/dmgJQSUsB7XTSVePHXnHmvsWASKK8Fbtmo4xdoYjO4IS431tAkK+ibznHQgEo/kWeBk0kOODa85tBFdsN+WAdjVz05hmtoDmK+oc/+ouR5K9PH1cMTSaCBj3v+HAFI8veuW7PIkhM3dNGX3lV/iNGjhraFBIlioYHXzd1HUlWzH342DYQSSDY99oLW0BE0P6it5cyd+Frl2wDkerT8FOGiMAbEomgTunNM42xc8cfoNC8VLHj5V94kjSGTy/fBkWpiKL+gPu+9Yw1/vHM6S2hkk4dtDhtUjkj7ef79oRIlKDumFeefvbZZ599+pV/QDH01aefe/IdY6Rx0pPPPfvMxMtunPjMc098RmPE+leeefbZZ166KZHgIa7bO2bLeXy9CJLsev6xE6TBeb+S63/+ftZyGmceCwEUXV/Pkivmfz9riTG8tzs0iQj6vV9O+oVzvv1x/jIzrnlsJ2iOoOVsBqZoLN8JGiGCXu+XkxvKZv/w+yqSP17YEBrnMIJ/dEEGbW9YSG5cMOuH31YEcv6QYki1yUyijzCOSiKCfV4qpzEE7703Gjfeuw00D0X9836l0YL3PtD449FFeCY/ETlqSjmNFnxuCKTxv+c2hKYwDCj5iqR570OgcfktjSExjT5nIEnPa6F4k555B06azsC8jd8mEWy1mB9AkOtwH1ftCU02krN2QLMnyGlDD96maatdB71LZi+AOOw5m+ufPWm3rZq07HbSJM/fekHjBLhmPTljRL8OrZu02HK3Y8cvJH/aBRrR4Prnn3wq32cee7PCVmwbpWh+52pmv7r8wM6tm++450kvraR/fzdojOJyzu8A7PYls59efECHVs223/2El9aQzxdDqkvR2wnOhcYoim9aRfOB8cEbfzgSKkkUbV4mg2es96y4Dk/lJahzTQUtG5jUsoF8rjU0H8/hOHEFgzdGBx/4dH1IVPGHrPDe+3JeCcVElnvvE3jvfQVfmMoK70MC772v4NQkDpeSp8FFKA42joVLNorzttOJ/P20+hDkukvXseIkoNMsvrc/BJFyzir+1hkaA1xP/nZmXcQK2v67nN+2gSBtwUPkOAgACFq9R37d1yFasNOTFVzYExI3hL90Qskf/OowQbRg32/Ip+pAqknjqQw5Rt8PLkrR7k0GH5g8BPJCaAJB2ykMwZjUGwc/Rp8HZDyDN5IM3nsfzEha8PykFSSvC/ffSG9MGjzHAxL1EQNJeo6A4nV65h348jQG5h04LYGg+HPO2gYaIaj3Gec2heQxv91V/GJXiFMVUae40POnreRlPtoI6lRF1ClOreDzkCjFP7Oc0QOiqiqi6hQY5XlrjOTvcBn5duMIQZvJ9P9uCXGqIqoqyJy2iGU94RL8tsMOv/HhRhCnKqKqiq2nkGdDq4Wi/Spa1K87QCIUO3zBrJGkBZ/NZr0x13PjYGiMoNkkZo2R5rPZrA8MXPIbLZniPIbA3MBobyRpWT5dF5Is8MEv6GkhBLMoGtf2hqYykRuzWZ/AZ7PZcr7wFcuzWZ8gm81myzk1gaL/Rt4NQbRiGHkcXB7fHbVkTntkBNEi7iVycF++3QgOsaK4n2sPgOYImnzGst2RESRU1J3IWdtCcvJ36L2CczpBEfEweXsGDgnV4YgVnL0tNO6Xjk/z3rpwSOjQ5TfObAmpBlqEyxmY6/kyBLmC4jfoSdICY4ORZODqvtC4GxiMuWaMNjPGxghazmNgrnHFx08/OnHqapqRpBlPgCYjN3gLxlwLUfR8HpA03qRn3oFvT2dg3sbvEgge4ZpDoQm6lfFVQR7fT9xwEDJI6HBwOSdPW9IZDgkV3RdzXJTDseQQZJDc4UiGI6GpKNrP4ur+cACgODnwYYgisTicmOUTkLjvhvODRlAkzuAi8iRolWgBpwlFsUdZlAUeDhdzKz1zAzd8ccfwi0Y9v4ARDJzaDJKj2HcdjbkWuPjFay+56oFZRjPLw+FUekbfs50DoJ2H/0YjSc8P60HyoAX6P75+99OfK2hRgQvaQ9MYdNv1N13zaIgyPnjNTTfeMO6k88fdcPPo12g5xtV3XH/jjTeMvSBO0fF3vl8XEgPo81y2NzTJaK4I98EheeY7VvBGKJIKiiZySjEEgOJ+/r41NA9F+zKem46g3lvkMDgAELSew1lbQZGnKO6nHQWNGMoF89buDYfkiq1/5eNVY2oTCJK2OnUejblZvpWB5DiUmllO4Me96wIQbHtXoJGk55VwAATuDXrmGjfcsRMAQYvzFjMwr4lRgY8DAgEU+yxjsMh9oXmY8aN/bpkRaXncN7QIBp4MlwYARbcsLaorFNEZHM9gEb81hSCx4hLyQjjEK04hr0s2hly6OzSZ4kFy2a55wGEUf90BCggaTOUzEOQpaDOLV0DSuZ582onkOJxPOxUOeSt2nss3HSRnGCv4IBT5Kp7n53UglWb8ffj5F10Ye9k1j8z0NOZ6LtwNilzBS/QkaXyxKURdxglwQ5Tx9+2ggGK/1bQcY8UZENGME8Ehf9CSCfBZlPEkFAGAaBFupCfJwHPh8gh8vDEEgKD9twwRntdD01DVDPbycd2R0eg6OCluQRs4VdUYQYPPuWhLSKK2P3FGa0iy1zOQfMaQ7wkkn7O5dI8cRbvlvAqaj6LtHF6VisOJGzm1LRQABMWf8uPGkPyguJarDoZGWfZAuBRG8Nd20EpL04wkg+eC3lDkKnqV00gGftYaTpDrUP89BpIMvBQOEIxlYNRoqEOuOBy9kZZHix8YcgKHIaPIVfTJRm7k3cgkC/yqJTIiECnCCbSYlyBpAFDskaArFNEZnJigNQRJHQYEPgBFUoc7yH9CE4wmh0KR3OE88hZkkM8xXFsStd3Xs45IY8c/0nHYYyEX7QOHXMXAcl4ORSq7LuPtkCh+UgRJYRDLu8JVBUsagg/GXOPHu0IR+ygDSaM/Cg6xDkcHWsS79SCC5t9GBU5tCkWs4jGGRIq2c+J+7gJVpwKgSUmf3r179+7VfxdIMuPpyCBS0GweQ07g9IKheJzlveASKfYjX8rD94HLazB5PFweiv5hY/8cwBUXO+SdwT4bOCIFQfPPyEFwiBnDxV3TEeANftIAEnUXBCkcQe5VNVI1fj6oKRSRgjYzIwK/bw2nsQ6tvmMgaVy+F1Sx50pa1GVwiHfo6WlJBMUzomicc+5WACCqyDfO+Of20CgInmE2ak6hULQv46cNIYkEdT/j8i7QJKv2huY1iCyBplA+ICpvEVVVXM2U7iXvhEiEoOhl/qcBJA1kMIYLO0OjBkHT6EMeWI3eLVFIlOLQDTSSni9CkVBwd5TxHKjDYIYc4+pu0ASC5t8xJIHiFfoI0jj/8cFdGgOAFhW5XM3D86MiSEwG18f96lAoriAvhSK5wyXkGLi4UVzQORW/W+WI5Iiqc84JcuuctoIcmZ/iUvKtRhBEKraczbvhkKqiN3kMHBRDub4knV6BJVUjJDaLII1vbg+JGUYjycDJx592asLTjns6gp7joIpxzJJk4LS6kARweIE+kcNRCYKRzP7w9JX9tskAcILYuCwfhiLW4SKGqAXFkEIgaPIZF3ZFRpNn0G0hpzeDJJi3QyrZ9pUDQFQRW7fVDged/9ZGhhQcei3n3I5QxO36J89JS7DNKl4Ys2yfdHpbVckzBIsIntPaQ3ME4xly0vd82UHwNH2O5zMQJM3gPmYTCeq+Th9FCz4YSZv3wuV71YVIXhW8BZkkZyRoWBgUh5XzfoggT8HDrPgHNMHcdCp2qiRRAHXbdTtyyLjHX/vo+z/NuPzfv3NEPoqtfuCGgXBIcNBqHp1eq185BhrxR/dqVf7z3HmxvyzcQJrlkFm+Xg8CiOAp+hjLMybwm6YQvBWV5a1weVxDnwiCHacyBMvJteADaVzz/sl1IflkOQZFSQbTrKAInqCN63nk4fke2ecO41OAVCtRtDjq7i+WM3rdgpkTr9h5q/m8Kg9B3YnkMCiSDPQ8FJpW45m8K2IIf+lQjQJntKtT3CC6cbvdTv0g0CLoeSYUEODt1CxuditAv2TIqeAoZBI5nM2QDILWT3qa98Fyci14o/GDvaB5DUMmyakFRrHzUvrANM2zrAu0Oinqn/Y1jcu+fefeMecf13fP7RtAsd0vKYwhnyyCJHA4htwnveIv+WBhmNYMgnhB3SuztJhPiyAQuA/igk+3gj/lfB43Iq9/5QVF5pi3VtIYsj5YTq55zwUDoPkMLWQZDKFn2p5DqpWi7XPGxfce1bVVBvFF2DYvh6PWcVo7KBIq+pWzd3pNv+dthWF6c6jEqxPcyRBhrNgHDiJ4PS5t4x9tIJhEH3V9HhkMzw8iqLPX0DcWGkmGYBEkPct6QDcZggZfc+Up+x96SP4l+566gdOKIdVG0HgK/T1bQwBA1DkVgebn0L2MS/aCItn+K3kcXFpbLOBVcAWhGQRJHbb8lSGHnhfBAYJHo4yfX3vzTWneOHZoQwieicryQWged9LnBVEAaDtwzBvzykmGEMUsXwdkU+FwROBEpCrQKWRfuOoiwO2suBxQVRFBbH6CZh/Sn4YM8uhWxsvSUrRfz3MLEjK4lz4icAI053aGHM+7oUhdcXtU4CcZSLKnmE0m0c4JIGjT56q3/ySDRRjX7QPdRAjwODkIRS7NOjiXfAxaXRS7LuUDUIc8Fdv/ns948k4IkgtazeTD0HQcjiEHFCaH/6HFTIIAivNoUa8ho8kzsQ5wOJshx7h460QCN4U+WVLJqACo0/2SHxjFwEs2GYpuC/l9OyjSFGz3M8s6QKvNNVy6OxT5Ouy+hiMSKM4JfKdxCvokpzaFpJLBLfx5B2ghUnRcT4ua0QACxT6raCQDv2sFQVJBUsWB62gkaRwMl0DRYTktmctEO+SKUwiaPcsQM67A/ZFoBHkrFOkKJpBDqosg8xLfzUBSOJpJHA5eznk7Q5GvYghX7w9NQ1DvE75bB1KIBFvMYYiatzUEgmZfMZA0buwFl0S0ZGC//v379x/QDiJoM4shJ3BSXUicw6UMTCDA1R+9/c4770x+76X2UOSKOrSdxZDjeW+B+7NNjKDJVK7dLzVFvw38qBGkmjT+kA9BkLfi1iSKtjO4/gg4pHDQKt6UjqJ0A0dDUJgafxll/G1nKCAYH8HAh6ESl0Evz2DmubgHVICHoozheGRiFFvMSAbBE/QkjewLFwGI6MtRgdcXuDU7wgEicDgi8G1AUhIUf8INfaDVpPVM3grNS9D0S3JklKDuc+SVUOQvcG/y+3aQVO7jol2gBcq9RR+1qHuOYq/VNJLG8pOgTkVEVdF+BgNJz+cAgeLwLI0kA3/dBU5VRBWYQGMixTBWeO99Be+EapSizodRxvMLm/HoHACC58lByCBtxWXkAxCpHs0+578heTkMZohTjCEfzyBVh+PIq+HyczhoOZ8EpCBB8Fjcqv1yoHiUWZI0rjrdITrT7ycGMwvmD4cCgoZTGXIY+NMhEACC4jtoTObQz9NIGjcMhjjn1DmHI9fRSBqzfQrTP2k5DPxqj6YZ1G+p6LCc87eAVMKOZfxja2j1qD+Jkx0kD0WLmWuWc0SEw1FrOb0NNBVB/c+4bA+4fAT1JnPdAVAUJsW4uIo+cBF7rqWRpLHi9VN3adOkTbcjn1vLQJKebwACQHFqDAOX3XnwNs3adDn9PzRaMkH9r+lJ0rjytGIIAMGRZTSS9JzREFJ4HPqRETQu/ezNiR8/7TCSvB2K9B2eJs+Bqw5Q3M6yDtBkKniIN/3IkTmKnX7hiv3hkK6iZC0/ag2XTBU3kDdAUbCG0SyCR0dAMZTeSNKMXP7TNz8uCzQjSeO6A6AAIJBJ9BE04/p5M39YQhotDzhcEEWjTRveZ5cu+5zx1hoao66AQ+FR7LE+hkYycAaaT+PK/StF0df4qYNWjyM28jaoJhCHohv46s6zeROcKpq9z+zpyEiaAKAYRU7eAk7j1AlGGqc0gRSuU8gcGi+B5gj0EXojSQvGyGAkacZLoYhU7LqYPoIhMNcCjWtCMkG9N+lzaEYyVJA0Y67nl80hBUhQ/yeGKFrwFfwaR1XwrXqQShA0+oLrD0WmOgjqT+aaMyAaL9jmKc7qWPw9XxEIcAd5CwSpC+rcQX68L0Q01zlB2wnl/KIDBIWrpCIq8F5AAEDQ4nn6YCRpFkIwI0kLnnc6xCv+sYreckgLIQSj559jypNB0f5b+mAkLXhvDN4bSVqWC/eGogBBcR0rLIpk4DQ8SZ4NRWUqriTHQ6sDFPst5vrbt0V8oxO+45y9gbe4+sxWWzc8JctPt27UrGmaTRwACDK3k0vH7IxIQYvjviE/3xaKAtZteZTne0VRUNS7m7RgTGreaDfWgcRBcMIahmA5kRaMp/dgHhB0+oghBGOuGSNDCJxbAkVBErSdyhAsSdclnNcOUkndyjh3B1QLKHr+Qi5+6tzSvXffp/S0e2fTXtgeRTiGFn5dedXDDAv++9OPKf4we2oHKAARd9JP5MoXzz1i/736nnL3fHLluBZQFC5B088YcoxlXaAREMgJ040M3odgFrwPNP5wIkSQVHDAZzTz3gcLwQfjssuwb15QNLl7Bc2C9yGYWfDeG7nxjfZQFCYIOv6HRrOQm+W068g7oajsZ8kLgDGcn8bgdAZYxWERULSfsIC5gSQ3TjmmLgTIDPlhHXnJg/RM17hm1wiIYquxP3qSNNK46LmDAEWCYfy1Yzp9yNJKuCDBjOZ5QXEnfQ4Db4BEQQRNLvpiLZNu+Ory1lBBckWzK2YGxq9/a29gv7inoBFQwa53/ZRl8kUvDawDRcz3ccOT/YvGZA0/iRsV5bBniArslgiC5hd/vITRgd/06N1rS0glCbbr2asjsH3v/eojX0GbPiUNkK+gZemhLSE5UEjHs+6f8s2sn7//8sUr9msAUQCCtvsctFuzzn1KSg5Nt+TAhpAcQIE2h9896dMf5nz13lNndspAFfGCbfvs3wApCpqX9moOSUmwVe+S0tySXnsXIW/B1j1LI0t674mEooKme1/84icz5pX9+tNXL4wsaQJR5O0ELQ+/94Ov5y38aerkK/cphkOT0siS3l0QLwq06zfqmY+/n7eg7JefvnrtzhM6FUEUsbJ3r5LS0tLSkj7bQuIE7XqVRvY6wCHX7d67pLS0tLSk93aQHEHjktLonsWQJBBBo+6HDbpw9K03XTP0XwcBAFZQOCBOEAAAMHIAnQEq9AEKAT5tNpZIpCKiISLySniADYlnbuFxHm5yDiAfgAizvW/yuzjdx5dLhaZslD/gfar2m/zp7AH6cdID+V+gD9kvVi/2PqA/uXqAf0v+6elv7Bf9l9Qz9YPTQ/dL4G/3F9Lv//+wBvgfnf/GduGRfuZ7RPZv+48Zk9F6U6qcdf/M8QL8D0RPeV1EfLk9fP7n+xj+tJDk7Jd6qtz9EwKMuaM2wq00n55tq/7K2Bl0VnrHfrvFp8wbdVXHUw26oF/OtYt9fw9yIJBhji9vCABWaOgQMLzlxAviOQLiv9eTIdrp0NPmDbqq46mG3VBtMpu4X0sOMRLQWuDa37VtUWnwLaYNuqrjqYbdAQddAXu+xl1eMhb4BbTBt1VcdTDPVvCeuyijLtlxkLfALaYNuqrjqYZ6tsuXuMpKDMQYW+AW0wbdVXHUwz1bn5rzsBg8eGjePVVx1MNuqrjqYA4a+bD3EPJdeLaBpg26quOpht1VJ9NWa87AYO2Xc+WKRPfmDbqq46l/zOHxHirJe7b6EuoN47Toi2HpYb/vB70JG7Gf732pFmeMeA4wOpht1VcdTDbqk1gGkHmPTgF175pXT4N673UzheSXtpdi7LS2K2+G3VVx1MNuqrjqUAYDefdgC+RWFsOb9sC61Wf3NqotEBjwKUwbdVXHUw26quOphtnUr/xGunvzBt1VcZoQmFku9VXHUwE9N81IoeYM+GiSB08dvkFjyY2iCxNt2ZskrzfGqEwZK8dlMkP0awl0SkNSda6d/PDFPyYUjzBQFzJXK9dhnP/nc7ETMPs1YGp2kkXsVOISTRW6pJeycvUhMG8BuFwHDU7zfmgVngphrMSUn8e6+N7Qvq7OTXl9Yh2p+xee+Kr9ySTxsdDZ7fLYTsSbWXXZe5yVODYbHs78g9K5580WC++irrLF0GBHlyhwKihAheQmA0PpRQ7rYwnkhKChHp1P/TTpRpMwGienyM+Gc+V5X9zMXmioR4DmVopUhFyS5H5dtFA5bgLVZKduNgaXL5I28123eiPLWgto6hS/ljWKymqNhlC2adzY4m4k1UZd2ubKk9L0RImbAhrw1AzPq2WFWWaQMKUgCk6kwaLGDj0cGVdVCu7SX2OnPbX89T4EFWS9Lg6FV3UWDPcjtl0CndXByquHUxFNCQPQu25Z0xOnXHy4TcnBhzx9sun873NyUvuAH5t+gVDuEzbhM+pGII9IVEFoAAD++u+BCbupn8+wpIa68Fng5gHdZjNmzaTS9Rq643UfGRXnu/kaql0CKBWD1+py3wg2RJ+hFrrVLyUPzMBk/3DrT7L1sm1kEXw/FP4XzjZaNVKbzbIrgvSusGH93t4GkL7jyWsTlcLD/bc+mv0f0pIdJ7aLpngxpta+fWCZaDSzEEavfVbFxDqBzRRsAkPI51Mv/6Y0MJHyRIZrR/8+6rSgQTilTaW2bhD2PCKgO5YYXs/H68WdeuZff9mwGe+DB56QLI201rxf618fQtbzr+L+8uRBq9U/ThYkrvNgaapzL7A0wZhiMi0S4b/5BUpgA7XOTRT3opY16ndCBffLbIVi591gddJnIc/sgl2rqby7X4opk0yt7TKFNP/XOLmlU3/ipsOfkocNXWZRxvVbi0r97WAvnNm7fdHuEFpk97dKVmORKZSExbOzBT2QB0/eh/+OAsHf0F7dQFUM3YGLqtr49mOWdK+8P2KY+3RExU83T5HekoECRN3aiA+OF4Bt9KqR+OzJo5WwqhxwYNVU7lKJi3PyVc//kFZWyz5s9iIMJ0LYGF4JcC3a6BMB7zwr2hcsgGFo5uZ84O73j6rjApxeLbTupIaXpa6P9ahWfQKlazZ3t7HKViSj2AIDw2ylELuCRfV1Jn9poqnNbRFCutlPe4rCYI6cU3N5aKRy2jB8YuE+FDIr+eJOLOSBPU8sagqQXhHHXSAEWU+HeLDSoV9OSr1m9ix5b9Xt6sL7AR7ErMD1P0j2X9HT5UxueQeQY3OXrRQ9b76jKNFVmZrAs5yL9x1v51p5AxunfdvlfhdHyWF80EGj5xAo9cXXq62OVRKP7oiM5nYEV5I9bjQ4H/ME8ayvroUC9VTe0Kx4bBtcC/akZXDfpGi4TmTw9QgIi1tt5GrRZzjztqP/e5+oXzTsfV8SBQAq7FFCNdTucTXmN/BbP6thjAugF07J+aZMJ65V49CfDgevmIIcHt+qeVf3A0P3khLNQIKTosfn9jhgmCW6nYHPfENtrSFY53GlwZgJ4SJtq0W8t5r+4j8x0pLs4H7L7KHmy9pTp/5wXGyCkRZ8pCc3mWbWSWyqEC3XALb0zOHPXqFsJ6szzEwmwvhrp3yNbzB9Ull67CJ175UlTlVGshsveguUAvmMieDFtCFMi7i6s8LuxbcMoip7HWgjl4yaRVedDNTteC/AcCFzJ5fJVWP2LAszBWR04VRI2GTfnIYlGIMVMmLt23COdkS1eswTA5OQ/fMw9wj8BK2cUvBGrycD0TxvUXMOC8QP6+YxnQot1JQCwtVnjA/1PxnTVlS/duGfHlTXYKD2/Rc6qnB6Jxwu69PrUVf29/7m0obxvbrZird4otjrHnRjmaW2QFkyvchtkbOgln13bzvcOwu487uTa059g97qB0JMYNLMKowbrKZuL/CKL9adLW2oo0MUv33xZbsYGs9H3JdgAJe1bO3iIagktot3kzrRVaRa4QZFXcDLwMiNKgx+w6vriz47RxlF08XnIGP7+3V+/A/55Zj92H/jlhYs8/fyEubXikq1JLtHMPwZG7ZDztXTn+Vqa9BB7mlhS0AMuabFkoliayc3W1Zai8dx3WoXd/tn7VyzVgx8F9UaHvKswd9ZA0z/QLBh9k5NxXb3nKitH+fKif8uz+MMJSCPo9KkInANRONLkEJA1tgIflH15+UHS9X9FgVe6K2Zpowh8P7C24jEk/8TMIAAEN7Cg+Awtyr03US6VrqugFyrQnIgruvrs6Ai4RpzPw9yF1Gj5FPx5xwmvE7PilLtfSMhOluMvrG9+T/afzybN9OkYe6qwkdusyxk/TXxxII6iyDh5ZUyjcA7XNg9+OeJlAPvH6yZ1ptetdF3R+0Y1EKLW+mMy6ArBi+y9UkVRMV6nrPXIFKkLOXupsmM8IwCP6I3JjiTfirQ+20TjPzf3iwEkOBZ6sa6eHnE9h9xYPAVmTtmTqXc/6bazJNTA0kZ9g3AuXmu5y3jlbtjp1q9dfJLVEFCA+fZtus+4h9NgnkJqtKX4Qon/yJC4Uz4KlHX3AKvYuG46khgB8UAAAAAAAKPudWVjt3UgThqHIwbsTg8SUsuOHaGlNDS1aU9cUqzddDUSNVDe4tqeIOyESBmtV7VaRQ0GaXE9SGJrnzGBGW68EtwdxWoyLkm9gsFb6zg8tKvOvy1/hbg4Js934fcmjighZc+KqWCR0nmQSMisTR7KSmPiOVv60+p72ZUfXYJi8H3LVVDWMnc/SlyuKy/Vto7syWR3jm8TrIsA/k1gmV5C4/NIfw/+JdKajpscnrbRcb08+I5BvzBCkxKPRFZM2hqMiHK5QG8oImI1G+VcPQQwtCgaDp//uoP1O2JlRLyH49N3yhcIMiuf9nl0zMjqMGapzxjwCn3Sbr9unKwmN5RzmxLgfuN6CcWOSt4XTKPNKKEtnjet+tkZJopKI5y0vSqZgjL3dEAgmgVX/+wH8hoL6wqqZzcb6Yy3uUm0vqSRz4bPXNXtO8gz1gBs1mwFTCQNZcv2krrp/H9Yh/ALep3KdeHxDrF43bEGX7LziVTzeys37QqXTF7MO1XJjxN58zLLRC4USPkMRIns9xXYwPSEGIq6fB9Dp2zfosCokNbg0CG8oa+/0OgoBNiyxANVMN/LoamXgVCHyIamXlgAJypRzGcNvpS3oKkZKcvdD9ceLvxUzT/K8OcPSq5ogJacwlABgt44Ts+U7pEZ8BewncNyG7Y1I4KXZClESpfOxkzGvnrVCwBw+or9wgoE9yNgWnXL3zCvF4CQtoQSykIpfJVdX8NLJ9xvNRZzPGLKPEpLQc/RKksAy9qzt5Y85bhSgMOgj78dT5XoINEduNX1UmRXH63xAhgpKrlWSw9LcnoACTMVSMJdlTqYOi8TPHFX0ekSk737L8JtDRD5V9QA9zq94nUlSiThJx5fpYfzmDVw2ZKidvY456a4JS3dC/73bNII5lFz8npYWOA+ifQ5FIesaLIN+1dRfTanKtYt09BGzhRQks6deNlBfUyfa0qf09Z85QTB81PR0sLdCahu7DX1jfzF6oqTlq3z0PgQqMu5+xrjRW4P8P0soBrW1s0HY/jX/yjC15Lv804UjtEwx+kUypE8nbJa/WL/vx4EqmAB8ezKj7+s1efGYEHY0TXR9N/Y7BQJyHcrCoLD6ha462j7H+9f2CrKMiDGSkFbl9riake6mVQvBKYKD/P/OgyUggcj/rxMXIaKmya2tocw7ME2SS8QOvZPpjEWFbsJ9uIjTsEIPaJbdNnpFaLw0nKA6rNKnHOnW5LiqIbweqXae9NZuQC8NfCeRvkHgGmzUPvRxBc50HCVZNKk68ulJu57H3+yoWn0Q4foVuBMuHD1Gm7qb62rAB1fV6YkrBSFmPzYGHtnsui02Z5R3K2/H8BMEn4iKph1EFYCPbeHE7ujVQE/Rdc5tk74sAHNwoSmbXV4OI7uVoZvuYBaSFCUaU99HYFd19V0m1ML7TollAdcFDQ8eJ8MMWBSBpRcU+hw1K2kFHiSUsBTAY5OwSkRNxaEEGPgyF5tMiYj9vvwE9QM6wvWF8/6zkkyt1OMPNnHxOw72vGC+s1QFhnaY7LyPiX45oEjhUjFTTPTgGPvHF+eUuGpvPfRic69Eg0oIPaErgqRFBfx67RlMYaMd+C3+MM4hPNH+SHf6V3kjC00XV6iAIQxcca5N5jSAy6KwAymTQP1OYIUxk4YJgC0uS6NEi4w/dVlM2PHxFXUfeMAy/igmW3xlMFBNr/YLO0MQEq3YE2Gv/FFjnZQmmndiXjpjv4zG43SAVVfvSK8ddYXRT4XqVw70+PRGBBPafJWAX1AsiyvGD3zN4nOYOFIXuuwjEO4IcIibMSeQ7208gitnpJ8M3XsbYp1yYu3b5m16mRgZF98MJ7rzTTkyZtpfzwwUptmxRXpSNKqnOh4ERcD/7bikMkFB0jNyqfO1JTEzhxGlz8qz/kKxl4chpInJsdG7MR8/qLYbJyko4aFz+gC0Q6oe821ue7jFH3nTj4FQIxRNkfUKpSsl0k+y31oBGVuIKwrua+j5CZOBmbQdfCbDucB/LMjzvPBuQqBpPueHEQyaJQrG5X5UtPAv76Yp97jiMxisuFAHVPRxAfRuFMTBXYvsgfGgkyM5+YgK/XsCYF+NpcybMnRWy+jAbEeOhu/mqZoBZ70sAOh+rwh42GEc6MhtUvg1COILYnRlrHIDB5t3t4JQz8owQnsPzpoDY+n96Q4mG5K4PZDsJbPDv4u/C3egEEX0m1+oGN6zJXLZOQerXzL2LbLRJmgc/aRUXyqJJvWFpU0fBte9gLAVXWJpmJWcq4T6us9Ho2XNgAAEVYSUa6AAAARXhpZgAASUkqAAgAAAAGABIBAwABAAAAAQAAABoBBQABAAAAVgAAABsBBQABAAAAXgAAACgBAwABAAAAAgAAABMCAwABAAAAAQAAAGmHBAABAAAAZgAAAAAAAABIAAAAAQAAAEgAAAABAAAABgAAkAcABAAAADAyMTABkQcABAAAAAECAwAAoAcABAAAADAxMDABoAMAAQAAAP//AAACoAQAAQAAAPQBAAADoAQAAQAAAAoBAAAAAAAA;" vertex="1" parent="1">
          <mxGeometry x="310" y="564" width="124.06" height="66" as="geometry" />
        </mxCell>
        <mxCell id="rWvnj3keseH3NQzJO7Qt-26" value="" style="edgeStyle=orthogonalEdgeStyle;rounded=0;orthogonalLoop=1;jettySize=auto;html=1;" edge="1" parent="1" source="rWvnj3keseH3NQzJO7Qt-23" target="rWvnj3keseH3NQzJO7Qt-25">
          <mxGeometry relative="1" as="geometry" />
        </mxCell>
        <mxCell id="rWvnj3keseH3NQzJO7Qt-23" value="&lt;font color=&quot;#ffffff&quot;&gt;Procedures&lt;/font&gt;" style="whiteSpace=wrap;html=1;fillColor=#000000;strokeColor=#FFFFFF;" vertex="1" parent="1">
          <mxGeometry x="140" y="720" width="120" height="60" as="geometry" />
        </mxCell>
        <mxCell id="rWvnj3keseH3NQzJO7Qt-25" value="" style="shape=cylinder3;whiteSpace=wrap;html=1;boundedLbl=1;backgroundOutline=1;size=15;fillColor=#000000;strokeColor=#FFFFFF;" vertex="1" parent="1">
          <mxGeometry x="350" y="710" width="60" height="80" as="geometry" />
        </mxCell>
        <mxCell id="rWvnj3keseH3NQzJO7Qt-27" value="Camada ouro (redshift)" style="text;html=1;align=center;verticalAlign=middle;whiteSpace=wrap;rounded=0;" vertex="1" parent="1">
          <mxGeometry x="350" y="800" width="60" height="30" as="geometry" />
        </mxCell>
        <mxCell id="rWvnj3keseH3NQzJO7Qt-28" value="" style="shape=image;verticalLabelPosition=bottom;labelBackgroundColor=default;verticalAlign=top;aspect=fixed;imageAspect=0;image=data:image/webp,UklGRtovAABXRUJQVlA4WAoAAAAYAAAA8wEACQEAQUxQSKMeAAAB8Idt27Ip2f/tx3HeQw1dAnYgDXbnDA3GY7yPDT52J6FSdiAm8tjdiYlY+NiKIDwmacKAdDNzn+ex/3Ff13VfM3OjM+8niIgJwN9jcYIWF8ymsVIDr5rywC4CVdQGiwqan/M1K9345gYuuacHoFrrIyqof8oMYwiVRa713vjnhC4QkdodJ2h48lTSAqummXH5Xd0B1VobUUWDYz80hmCsikbSgg9cencXQFVqY0QF7ogPKhi8sUoHb1x0T2eIaO2LE9QZ+J7RAqu+BeOqCV0A0VoVcYo6vd/I0oKxWoZgXHZPd0Cd1JqoAIe+vJ7mjdXWvHHRHZ0gorUjKtD9nq+gBWO1DsG48u4OgGjthyp03yfX04Kx2lswLr2rB6Ba2wHs/tAKBm8shGbeuOiOzqjtlM73r6YFY8G0YFx2186QWgzFfstowVhQzYyLdofWXjgcRh+MBdaCtz5wtRn9WIiNvrR2o3+Bsp6bcSLOyV8F0YzUjIkKAFEV2cSJqACASg2YA/SAfm2Qq042VSJOkbvd4Y0hTmq2xAnq9Hy+PPz22lUDt80AgMuobGJEMw4AMjscNuKNMr5+aB2Iq8ESFbiBr61nMJIV89+65oitBADUqcimQdQpAMjWR1395i+eZOD61w5zgErNlKigaOBb5TQfLHhPkhV/TB7df0sFAHEiBU7UCQDo1gOvfn9BBUl6HxiMFZP6ZSAqNU/iBA2PnmK0YIy0EAJJhsUfjPlH+7oAUIQBhauOAkDdDv+4bsoS5oYQjLkWjOGDoxoBKjVOaDjoI08LTG4WsoGkX/DOjcft5BR9C5dDpsMJN3+wMEsyZIMZk5o3Vkw5uRg1TILiQV8EmjemaMF7I+kXTRk34OxC1bvVibd9stiTNB+CMX/zgeGzExpAapAEDabSLBjTDyEYSdtghYi0n5eSpIUQjKkHM35YH1KT1HwNvbGyLXhj4TYfjJVsnoua1zCtprEqmhWqEIxVMHBhTdOaKrKJD1y02X+b/bfZf5v9t9l/m/232X+b/bfZf5v9t9l/m/232X+bHbT6r1FZTdMahipgIVihshCCVZ7nohqmRvNo3irFQvCBBdsCSfMhWGVYCPy2UU0SgK63L6aFkJKF4I2kX/jqiwXJaDeOnLIwkLQQgqVjwbjo5k6oce58/xpasLwshECStuSjawfuhL4FKpSg3k6HXf/JEiPJ4IPlY8G46p6OkJomEUGn8ctpPiSw4D1p3Djv7TH92wBwGFCgrDccALQ57JrJv2ZJmvfB4oI3LhvfASJa0wSoAnvcv5TmjaRZ8EYyO/fVEQO3UQDiXAb9C1VPZNSpAHDbHTH69flZkuZDMNKCcdm9uwGigppoVWiPB9fSQjCSzP7xxrDeWysAqFMArpA5ABCnAOC26XvF2ws8SYZgXPtQD0AVNdYqQI+HVtC4bvbEyw9pAQGgKoLIwpcrTpDbqnT4a3M3kCse2AUiihptFWCfx18Z1rMtAIhTESTcNAAQdU4ASNteoyf3AkQFNd0qUAcAzgny3WREinMAkIEoasRVoE6Q5qYlV5xCUWMuSHnTA0BQ479JqgXc7BqzQmS+lmMgLRsKTcjSetVmCFqOXUoLVkhCMC65vjmk9gIQdJiwnOatUARvXDB2BwhqNUWAHvetYPBWACx444KxO0KklgNQhe796FpasOpmZlx8YydAFbWgKsCuz22geatOFoyLbtkeIopaUhXIQU+vY/BWXYI3Lrx5J0AUtahO4Xq+VkELVh0sGBeN7QKoopZVBZnSyZ4WqpwFcsntOwKiqIVVQWbgpHIGX0UsInjjglvaQ0RROytOUe/IKYEhWFXIDcG4eGwniCpqb8UJGvzPJ0YLVaDCLBiX3bETIIraXVFBvZO/CAzZSq4IH24gy27rABFF7a84RdNTp9FYucZb/lx2exeIqqBWWJyg2WVvvDKxUl+edPjgXQFR1B6LomqKonZZXOWrU2z2/2b/b/b//0NdVFX+5ohWonMqBUY0VqqSaKxUkmis5CXqnKo656pODaCoFJJNsQqqvKDtnfc8tBv0b4zi4AfvmZD2zUPP2LeJQKRgKP71yPgJEyZMGP/QqZAqIyMfuGfChAkTxj/SG64y6lz24D0TJkyYMP6hfpAkCml9yDkjx959y5ghpzWFAJD41BwuYjkf+FvjcBmzrMR134zrDtFC4fAysyTp+WIVysxlIMksR6IoPUHjzxlI0vM6aJwouo+bu5G5xoquUFRBQf0pzHLBdpC/M+eywqeczWYDjX/e1hpaMJ7kRu+9L+fjVcjNZIX33pdzCDKVUfwhK7z3vpxXJhDIuX/S6LPZbLYirO+Uo3XjJSVF7418eyEvhP6dOY+e6VvwPnB6N2iheJpZkvR8sip9y0CSWQ6tpI8YSNJzRALFGFoIwUjSuKET1KHf99OmTZ8+fdp/JzeHpCK4l4t3f5FTiiF/03KD5y/7QP+KKU40BsYaN3SGZnAKg5E0Lt4iHcF28/kKzuHaQ6B/40jP6VtD/vL8h9kQQqhIIGj9DQMjQwg+rOuUcwKzPoTg+XvrdBzOJ4/F9r/zLsjfo5DYe28xzPLRvz4NP2EgSc9RMYqzGRhpJI3ZrjknMhhJ44J0BHU+4XeNgYc4fyvo36K8LcQYNx4I/YvTYOLKBWVlZWULVl0cJYJX6SOMP945ZOj1Y9tAKk9xqPE6FKE/eTrc3x/jb5eeec7ZsecNHz/d06Lo+TjkLw2g23TsENmpJSIFrWYx5ATO3AGCyKpwP5ftCYfGX3EK/rYmCZzaBIKkjY75iSEqcE5byF+bFBUdltGizkORc06rgmLnX/mKgyhGcMMB0PREVFVF8hDNldRENFKkeoiIqopUjojmilSp6S2RcQlF0fEXhghjdgBcXqLOZVwm41QqQdS5TCbjtLJE1GUyLpNxqlJZIi6TyWScSj6isRK3W3ncgXCASNW4hBwMhWLPpbwDko84jRBFtDiJExVEi0oKooqEqonUpZ2HKmLVST7iXJQ4QbQ4qUrNIEgqRTgvhsazoclEFUlFU1JFQpVKUEVycVIJ4gTxoskgsQAgIg57+rjucBJdlGgLqIhIIkHD/3BWOwgERa/xx60geUSLAK7N7j0P7NxCAYkSgTTccd9e++/cGBDNRxSAa9Fhz9JDdm/f1AGiCaqiKIC6zbfb75BOrRsKIJIsVgRwTbsc3HPv9k0FEKkuEGy/jBYzApJEFEC9XY+78IZ77hwzeI8GgEgKokDRLsddcutdwwf1yACaSUcUQL32/c+/7vYJ428a9s/dmgJQSUsB7XTSVePHXnHmvsWASKK8Fbtmo4xdoYjO4IS431tAkK+ibznHQgEo/kWeBk0kOODa85tBFdsN+WAdjVz05hmtoDmK+oc/+ouR5K9PH1cMTSaCBj3v+HAFI8veuW7PIkhM3dNGX3lV/iNGjhraFBIlioYHXzd1HUlWzH342DYQSSDY99oLW0BE0P6it5cyd+Frl2wDkerT8FOGiMAbEomgTunNM42xc8cfoNC8VLHj5V94kjSGTy/fBkWpiKL+gPu+9Yw1/vHM6S2hkk4dtDhtUjkj7ef79oRIlKDumFeefvbZZ599+pV/QDH01aefe/IdY6Rx0pPPPfvMxMtunPjMc098RmPE+leeefbZZ166KZHgIa7bO2bLeXy9CJLsev6xE6TBeb+S63/+ftZyGmceCwEUXV/Pkivmfz9riTG8tzs0iQj6vV9O+oVzvv1x/jIzrnlsJ2iOoOVsBqZoLN8JGiGCXu+XkxvKZv/w+yqSP17YEBrnMIJ/dEEGbW9YSG5cMOuH31YEcv6QYki1yUyijzCOSiKCfV4qpzEE7703Gjfeuw00D0X9836l0YL3PtD449FFeCY/ETlqSjmNFnxuCKTxv+c2hKYwDCj5iqR570OgcfktjSExjT5nIEnPa6F4k555B06azsC8jd8mEWy1mB9AkOtwH1ftCU02krN2QLMnyGlDD96maatdB71LZi+AOOw5m+ufPWm3rZq07HbSJM/fekHjBLhmPTljRL8OrZu02HK3Y8cvJH/aBRrR4Prnn3wq32cee7PCVmwbpWh+52pmv7r8wM6tm++450kvraR/fzdojOJyzu8A7PYls59efECHVs223/2El9aQzxdDqkvR2wnOhcYoim9aRfOB8cEbfzgSKkkUbV4mg2es96y4Dk/lJahzTQUtG5jUsoF8rjU0H8/hOHEFgzdGBx/4dH1IVPGHrPDe+3JeCcVElnvvE3jvfQVfmMoK70MC772v4NQkDpeSp8FFKA42joVLNorzttOJ/P20+hDkukvXseIkoNMsvrc/BJFyzir+1hkaA1xP/nZmXcQK2v67nN+2gSBtwUPkOAgACFq9R37d1yFasNOTFVzYExI3hL90Qskf/OowQbRg32/Ip+pAqknjqQw5Rt8PLkrR7k0GH5g8BPJCaAJB2ykMwZjUGwc/Rp8HZDyDN5IM3nsfzEha8PykFSSvC/ffSG9MGjzHAxL1EQNJeo6A4nV65h348jQG5h04LYGg+HPO2gYaIaj3Gec2heQxv91V/GJXiFMVUae40POnreRlPtoI6lRF1ClOreDzkCjFP7Oc0QOiqiqi6hQY5XlrjOTvcBn5duMIQZvJ9P9uCXGqIqoqyJy2iGU94RL8tsMOv/HhRhCnKqKqiq2nkGdDq4Wi/Spa1K87QCIUO3zBrJGkBZ/NZr0x13PjYGiMoNkkZo2R5rPZrA8MXPIbLZniPIbA3MBobyRpWT5dF5Is8MEv6GkhBLMoGtf2hqYykRuzWZ/AZ7PZcr7wFcuzWZ8gm81myzk1gaL/Rt4NQbRiGHkcXB7fHbVkTntkBNEi7iVycF++3QgOsaK4n2sPgOYImnzGst2RESRU1J3IWdtCcvJ36L2CczpBEfEweXsGDgnV4YgVnL0tNO6Xjk/z3rpwSOjQ5TfObAmpBlqEyxmY6/kyBLmC4jfoSdICY4ORZODqvtC4GxiMuWaMNjPGxghazmNgrnHFx08/OnHqapqRpBlPgCYjN3gLxlwLUfR8HpA03qRn3oFvT2dg3sbvEgge4ZpDoQm6lfFVQR7fT9xwEDJI6HBwOSdPW9IZDgkV3RdzXJTDseQQZJDc4UiGI6GpKNrP4ur+cACgODnwYYgisTicmOUTkLjvhvODRlAkzuAi8iRolWgBpwlFsUdZlAUeDhdzKz1zAzd8ccfwi0Y9v4ARDJzaDJKj2HcdjbkWuPjFay+56oFZRjPLw+FUekbfs50DoJ2H/0YjSc8P60HyoAX6P75+99OfK2hRgQvaQ9MYdNv1N13zaIgyPnjNTTfeMO6k88fdcPPo12g5xtV3XH/jjTeMvSBO0fF3vl8XEgPo81y2NzTJaK4I98EheeY7VvBGKJIKiiZySjEEgOJ+/r41NA9F+zKem46g3lvkMDgAELSew1lbQZGnKO6nHQWNGMoF89buDYfkiq1/5eNVY2oTCJK2OnUejblZvpWB5DiUmllO4Me96wIQbHtXoJGk55VwAATuDXrmGjfcsRMAQYvzFjMwr4lRgY8DAgEU+yxjsMh9oXmY8aN/bpkRaXncN7QIBp4MlwYARbcsLaorFNEZHM9gEb81hSCx4hLyQjjEK04hr0s2hly6OzSZ4kFy2a55wGEUf90BCggaTOUzEOQpaDOLV0DSuZ582onkOJxPOxUOeSt2nss3HSRnGCv4IBT5Kp7n53UglWb8ffj5F10Ye9k1j8z0NOZ6LtwNilzBS/QkaXyxKURdxglwQ5Tx9+2ggGK/1bQcY8UZENGME8Ehf9CSCfBZlPEkFAGAaBFupCfJwHPh8gh8vDEEgKD9twwRntdD01DVDPbycd2R0eg6OCluQRs4VdUYQYPPuWhLSKK2P3FGa0iy1zOQfMaQ7wkkn7O5dI8cRbvlvAqaj6LtHF6VisOJGzm1LRQABMWf8uPGkPyguJarDoZGWfZAuBRG8Nd20EpL04wkg+eC3lDkKnqV00gGftYaTpDrUP89BpIMvBQOEIxlYNRoqEOuOBy9kZZHix8YcgKHIaPIVfTJRm7k3cgkC/yqJTIiECnCCbSYlyBpAFDskaArFNEZnJigNQRJHQYEPgBFUoc7yH9CE4wmh0KR3OE88hZkkM8xXFsStd3Xs45IY8c/0nHYYyEX7QOHXMXAcl4ORSq7LuPtkCh+UgRJYRDLu8JVBUsagg/GXOPHu0IR+ygDSaM/Cg6xDkcHWsS79SCC5t9GBU5tCkWs4jGGRIq2c+J+7gJVpwKgSUmf3r179+7VfxdIMuPpyCBS0GweQ07g9IKheJzlveASKfYjX8rD94HLazB5PFweiv5hY/8cwBUXO+SdwT4bOCIFQfPPyEFwiBnDxV3TEeANftIAEnUXBCkcQe5VNVI1fj6oKRSRgjYzIwK/bw2nsQ6tvmMgaVy+F1Sx50pa1GVwiHfo6WlJBMUzomicc+5WACCqyDfO+Of20CgInmE2ak6hULQv46cNIYkEdT/j8i7QJKv2huY1iCyBplA+ICpvEVVVXM2U7iXvhEiEoOhl/qcBJA1kMIYLO0OjBkHT6EMeWI3eLVFIlOLQDTSSni9CkVBwd5TxHKjDYIYc4+pu0ASC5t8xJIHiFfoI0jj/8cFdGgOAFhW5XM3D86MiSEwG18f96lAoriAvhSK5wyXkGLi4UVzQORW/W+WI5Iiqc84JcuuctoIcmZ/iUvKtRhBEKraczbvhkKqiN3kMHBRDub4knV6BJVUjJDaLII1vbg+JGUYjycDJx592asLTjns6gp7joIpxzJJk4LS6kARweIE+kcNRCYKRzP7w9JX9tskAcILYuCwfhiLW4SKGqAXFkEIgaPIZF3ZFRpNn0G0hpzeDJJi3QyrZ9pUDQFQRW7fVDged/9ZGhhQcei3n3I5QxO36J89JS7DNKl4Ys2yfdHpbVckzBIsIntPaQ3ME4xly0vd82UHwNH2O5zMQJM3gPmYTCeq+Th9FCz4YSZv3wuV71YVIXhW8BZkkZyRoWBgUh5XzfoggT8HDrPgHNMHcdCp2qiRRAHXbdTtyyLjHX/vo+z/NuPzfv3NEPoqtfuCGgXBIcNBqHp1eq185BhrxR/dqVf7z3HmxvyzcQJrlkFm+Xg8CiOAp+hjLMybwm6YQvBWV5a1weVxDnwiCHacyBMvJteADaVzz/sl1IflkOQZFSQbTrKAInqCN63nk4fke2ecO41OAVCtRtDjq7i+WM3rdgpkTr9h5q/m8Kg9B3YnkMCiSDPQ8FJpW45m8K2IIf+lQjQJntKtT3CC6cbvdTv0g0CLoeSYUEODt1CxuditAv2TIqeAoZBI5nM2QDILWT3qa98Fyci14o/GDvaB5DUMmyakFRrHzUvrANM2zrAu0Oinqn/Y1jcu+fefeMecf13fP7RtAsd0vKYwhnyyCJHA4htwnveIv+WBhmNYMgnhB3SuztJhPiyAQuA/igk+3gj/lfB43Iq9/5QVF5pi3VtIYsj5YTq55zwUDoPkMLWQZDKFn2p5DqpWi7XPGxfce1bVVBvFF2DYvh6PWcVo7KBIq+pWzd3pNv+dthWF6c6jEqxPcyRBhrNgHDiJ4PS5t4x9tIJhEH3V9HhkMzw8iqLPX0DcWGkmGYBEkPct6QDcZggZfc+Up+x96SP4l+566gdOKIdVG0HgK/T1bQwBA1DkVgebn0L2MS/aCItn+K3kcXFpbLOBVcAWhGQRJHbb8lSGHnhfBAYJHo4yfX3vzTWneOHZoQwieicryQWged9LnBVEAaDtwzBvzykmGEMUsXwdkU+FwROBEpCrQKWRfuOoiwO2suBxQVRFBbH6CZh/Sn4YM8uhWxsvSUrRfz3MLEjK4lz4icAI053aGHM+7oUhdcXtU4CcZSLKnmE0m0c4JIGjT56q3/ySDRRjX7QPdRAjwODkIRS7NOjiXfAxaXRS7LuUDUIc8Fdv/ns948k4IkgtazeTD0HQcjiEHFCaH/6HFTIIAivNoUa8ho8kzsQ5wOJshx7h460QCN4U+WVLJqACo0/2SHxjFwEs2GYpuC/l9OyjSFGz3M8s6QKvNNVy6OxT5Ouy+hiMSKM4JfKdxCvokpzaFpJLBLfx5B2ghUnRcT4ua0QACxT6raCQDv2sFQVJBUsWB62gkaRwMl0DRYTktmctEO+SKUwiaPcsQM67A/ZFoBHkrFOkKJpBDqosg8xLfzUBSOJpJHA5eznk7Q5GvYghX7w9NQ1DvE75bB1KIBFvMYYiatzUEgmZfMZA0buwFl0S0ZGC//v379x/QDiJoM4shJ3BSXUicw6UMTCDA1R+9/c4770x+76X2UOSKOrSdxZDjeW+B+7NNjKDJVK7dLzVFvw38qBGkmjT+kA9BkLfi1iSKtjO4/gg4pHDQKt6UjqJ0A0dDUJgafxll/G1nKCAYH8HAh6ESl0Evz2DmubgHVICHoozheGRiFFvMSAbBE/QkjewLFwGI6MtRgdcXuDU7wgEicDgi8G1AUhIUf8INfaDVpPVM3grNS9D0S3JklKDuc+SVUOQvcG/y+3aQVO7jol2gBcq9RR+1qHuOYq/VNJLG8pOgTkVEVdF+BgNJz+cAgeLwLI0kA3/dBU5VRBWYQGMixTBWeO99Be+EapSizodRxvMLm/HoHACC58lByCBtxWXkAxCpHs0+578heTkMZohTjCEfzyBVh+PIq+HyczhoOZ8EpCBB8Fjcqv1yoHiUWZI0rjrdITrT7ycGMwvmD4cCgoZTGXIY+NMhEACC4jtoTObQz9NIGjcMhjjn1DmHI9fRSBqzfQrTP2k5DPxqj6YZ1G+p6LCc87eAVMKOZfxja2j1qD+Jkx0kD0WLmWuWc0SEw1FrOb0NNBVB/c+4bA+4fAT1JnPdAVAUJsW4uIo+cBF7rqWRpLHi9VN3adOkTbcjn1vLQJKebwACQHFqDAOX3XnwNs3adDn9PzRaMkH9r+lJ0rjytGIIAMGRZTSS9JzREFJ4HPqRETQu/ezNiR8/7TCSvB2K9B2eJs+Bqw5Q3M6yDtBkKniIN/3IkTmKnX7hiv3hkK6iZC0/ag2XTBU3kDdAUbCG0SyCR0dAMZTeSNKMXP7TNz8uCzQjSeO6A6AAIJBJ9BE04/p5M39YQhotDzhcEEWjTRveZ5cu+5zx1hoao66AQ+FR7LE+hkYycAaaT+PK/StF0df4qYNWjyM28jaoJhCHohv46s6zeROcKpq9z+zpyEiaAKAYRU7eAk7j1AlGGqc0gRSuU8gcGi+B5gj0EXojSQvGyGAkacZLoYhU7LqYPoIhMNcCjWtCMkG9N+lzaEYyVJA0Y67nl80hBUhQ/yeGKFrwFfwaR1XwrXqQShA0+oLrD0WmOgjqT+aaMyAaL9jmKc7qWPw9XxEIcAd5CwSpC+rcQX68L0Q01zlB2wnl/KIDBIWrpCIq8F5AAEDQ4nn6YCRpFkIwI0kLnnc6xCv+sYreckgLIQSj559jypNB0f5b+mAkLXhvDN4bSVqWC/eGogBBcR0rLIpk4DQ8SZ4NRWUqriTHQ6sDFPst5vrbt0V8oxO+45y9gbe4+sxWWzc8JctPt27UrGmaTRwACDK3k0vH7IxIQYvjviE/3xaKAtZteZTne0VRUNS7m7RgTGreaDfWgcRBcMIahmA5kRaMp/dgHhB0+oghBGOuGSNDCJxbAkVBErSdyhAsSdclnNcOUkndyjh3B1QLKHr+Qi5+6tzSvXffp/S0e2fTXtgeRTiGFn5dedXDDAv++9OPKf4we2oHKAARd9JP5MoXzz1i/736nnL3fHLluBZQFC5B088YcoxlXaAREMgJ040M3odgFrwPNP5wIkSQVHDAZzTz3gcLwQfjssuwb15QNLl7Bc2C9yGYWfDeG7nxjfZQFCYIOv6HRrOQm+W068g7oajsZ8kLgDGcn8bgdAZYxWERULSfsIC5gSQ3TjmmLgTIDPlhHXnJg/RM17hm1wiIYquxP3qSNNK46LmDAEWCYfy1Yzp9yNJKuCDBjOZ5QXEnfQ4Db4BEQQRNLvpiLZNu+Ory1lBBckWzK2YGxq9/a29gv7inoBFQwa53/ZRl8kUvDawDRcz3ccOT/YvGZA0/iRsV5bBniArslgiC5hd/vITRgd/06N1rS0glCbbr2asjsH3v/eojX0GbPiUNkK+gZemhLSE5UEjHs+6f8s2sn7//8sUr9msAUQCCtvsctFuzzn1KSg5Nt+TAhpAcQIE2h9896dMf5nz13lNndspAFfGCbfvs3wApCpqX9moOSUmwVe+S0tySXnsXIW/B1j1LI0t674mEooKme1/84icz5pX9+tNXL4wsaQJR5O0ELQ+/94Ov5y38aerkK/cphkOT0siS3l0QLwq06zfqmY+/n7eg7JefvnrtzhM6FUEUsbJ3r5LS0tLSkj7bQuIE7XqVRvY6wCHX7d67pLS0tLSk93aQHEHjktLonsWQJBBBo+6HDbpw9K03XTP0XwcBAFZQOCBOEAAAMHIAnQEq9AEKAT5tNpZIpCKiISLySniADYlnbuFxHm5yDiAfgAizvW/yuzjdx5dLhaZslD/gfar2m/zp7AH6cdID+V+gD9kvVi/2PqA/uXqAf0v+6elv7Bf9l9Qz9YPTQ/dL4G/3F9Lv//+wBvgfnf/GduGRfuZ7RPZv+48Zk9F6U6qcdf/M8QL8D0RPeV1EfLk9fP7n+xj+tJDk7Jd6qtz9EwKMuaM2wq00n55tq/7K2Bl0VnrHfrvFp8wbdVXHUw26oF/OtYt9fw9yIJBhji9vCABWaOgQMLzlxAviOQLiv9eTIdrp0NPmDbqq46mG3VBtMpu4X0sOMRLQWuDa37VtUWnwLaYNuqrjqYbdAQddAXu+xl1eMhb4BbTBt1VcdTDPVvCeuyijLtlxkLfALaYNuqrjqYZ6tsuXuMpKDMQYW+AW0wbdVXHUwz1bn5rzsBg8eGjePVVx1MNuqrjqYA4a+bD3EPJdeLaBpg26quOpht1VJ9NWa87AYO2Xc+WKRPfmDbqq46l/zOHxHirJe7b6EuoN47Toi2HpYb/vB70JG7Gf732pFmeMeA4wOpht1VcdTDbqk1gGkHmPTgF175pXT4N673UzheSXtpdi7LS2K2+G3VVx1MNuqrjqUAYDefdgC+RWFsOb9sC61Wf3NqotEBjwKUwbdVXHUw26quOphtnUr/xGunvzBt1VcZoQmFku9VXHUwE9N81IoeYM+GiSB08dvkFjyY2iCxNt2ZskrzfGqEwZK8dlMkP0awl0SkNSda6d/PDFPyYUjzBQFzJXK9dhnP/nc7ETMPs1YGp2kkXsVOISTRW6pJeycvUhMG8BuFwHDU7zfmgVngphrMSUn8e6+N7Qvq7OTXl9Yh2p+xee+Kr9ySTxsdDZ7fLYTsSbWXXZe5yVODYbHs78g9K5580WC++irrLF0GBHlyhwKihAheQmA0PpRQ7rYwnkhKChHp1P/TTpRpMwGienyM+Gc+V5X9zMXmioR4DmVopUhFyS5H5dtFA5bgLVZKduNgaXL5I28123eiPLWgto6hS/ljWKymqNhlC2adzY4m4k1UZd2ubKk9L0RImbAhrw1AzPq2WFWWaQMKUgCk6kwaLGDj0cGVdVCu7SX2OnPbX89T4EFWS9Lg6FV3UWDPcjtl0CndXByquHUxFNCQPQu25Z0xOnXHy4TcnBhzx9sun873NyUvuAH5t+gVDuEzbhM+pGII9IVEFoAAD++u+BCbupn8+wpIa68Fng5gHdZjNmzaTS9Rq643UfGRXnu/kaql0CKBWD1+py3wg2RJ+hFrrVLyUPzMBk/3DrT7L1sm1kEXw/FP4XzjZaNVKbzbIrgvSusGH93t4GkL7jyWsTlcLD/bc+mv0f0pIdJ7aLpngxpta+fWCZaDSzEEavfVbFxDqBzRRsAkPI51Mv/6Y0MJHyRIZrR/8+6rSgQTilTaW2bhD2PCKgO5YYXs/H68WdeuZff9mwGe+DB56QLI201rxf618fQtbzr+L+8uRBq9U/ThYkrvNgaapzL7A0wZhiMi0S4b/5BUpgA7XOTRT3opY16ndCBffLbIVi591gddJnIc/sgl2rqby7X4opk0yt7TKFNP/XOLmlU3/ipsOfkocNXWZRxvVbi0r97WAvnNm7fdHuEFpk97dKVmORKZSExbOzBT2QB0/eh/+OAsHf0F7dQFUM3YGLqtr49mOWdK+8P2KY+3RExU83T5HekoECRN3aiA+OF4Bt9KqR+OzJo5WwqhxwYNVU7lKJi3PyVc//kFZWyz5s9iIMJ0LYGF4JcC3a6BMB7zwr2hcsgGFo5uZ84O73j6rjApxeLbTupIaXpa6P9ahWfQKlazZ3t7HKViSj2AIDw2ylELuCRfV1Jn9poqnNbRFCutlPe4rCYI6cU3N5aKRy2jB8YuE+FDIr+eJOLOSBPU8sagqQXhHHXSAEWU+HeLDSoV9OSr1m9ix5b9Xt6sL7AR7ErMD1P0j2X9HT5UxueQeQY3OXrRQ9b76jKNFVmZrAs5yL9x1v51p5AxunfdvlfhdHyWF80EGj5xAo9cXXq62OVRKP7oiM5nYEV5I9bjQ4H/ME8ayvroUC9VTe0Kx4bBtcC/akZXDfpGi4TmTw9QgIi1tt5GrRZzjztqP/e5+oXzTsfV8SBQAq7FFCNdTucTXmN/BbP6thjAugF07J+aZMJ65V49CfDgevmIIcHt+qeVf3A0P3khLNQIKTosfn9jhgmCW6nYHPfENtrSFY53GlwZgJ4SJtq0W8t5r+4j8x0pLs4H7L7KHmy9pTp/5wXGyCkRZ8pCc3mWbWSWyqEC3XALb0zOHPXqFsJ6szzEwmwvhrp3yNbzB9Ull67CJ175UlTlVGshsveguUAvmMieDFtCFMi7i6s8LuxbcMoip7HWgjl4yaRVedDNTteC/AcCFzJ5fJVWP2LAszBWR04VRI2GTfnIYlGIMVMmLt23COdkS1eswTA5OQ/fMw9wj8BK2cUvBGrycD0TxvUXMOC8QP6+YxnQot1JQCwtVnjA/1PxnTVlS/duGfHlTXYKD2/Rc6qnB6Jxwu69PrUVf29/7m0obxvbrZird4otjrHnRjmaW2QFkyvchtkbOgln13bzvcOwu487uTa059g97qB0JMYNLMKowbrKZuL/CKL9adLW2oo0MUv33xZbsYGs9H3JdgAJe1bO3iIagktot3kzrRVaRa4QZFXcDLwMiNKgx+w6vriz47RxlF08XnIGP7+3V+/A/55Zj92H/jlhYs8/fyEubXikq1JLtHMPwZG7ZDztXTn+Vqa9BB7mlhS0AMuabFkoliayc3W1Zai8dx3WoXd/tn7VyzVgx8F9UaHvKswd9ZA0z/QLBh9k5NxXb3nKitH+fKif8uz+MMJSCPo9KkInANRONLkEJA1tgIflH15+UHS9X9FgVe6K2Zpowh8P7C24jEk/8TMIAAEN7Cg+Awtyr03US6VrqugFyrQnIgruvrs6Ai4RpzPw9yF1Gj5FPx5xwmvE7PilLtfSMhOluMvrG9+T/afzybN9OkYe6qwkdusyxk/TXxxII6iyDh5ZUyjcA7XNg9+OeJlAPvH6yZ1ptetdF3R+0Y1EKLW+mMy6ArBi+y9UkVRMV6nrPXIFKkLOXupsmM8IwCP6I3JjiTfirQ+20TjPzf3iwEkOBZ6sa6eHnE9h9xYPAVmTtmTqXc/6bazJNTA0kZ9g3AuXmu5y3jlbtjp1q9dfJLVEFCA+fZtus+4h9NgnkJqtKX4Qon/yJC4Uz4KlHX3AKvYuG46khgB8UAAAAAAAKPudWVjt3UgThqHIwbsTg8SUsuOHaGlNDS1aU9cUqzddDUSNVDe4tqeIOyESBmtV7VaRQ0GaXE9SGJrnzGBGW68EtwdxWoyLkm9gsFb6zg8tKvOvy1/hbg4Js934fcmjighZc+KqWCR0nmQSMisTR7KSmPiOVv60+p72ZUfXYJi8H3LVVDWMnc/SlyuKy/Vto7syWR3jm8TrIsA/k1gmV5C4/NIfw/+JdKajpscnrbRcb08+I5BvzBCkxKPRFZM2hqMiHK5QG8oImI1G+VcPQQwtCgaDp//uoP1O2JlRLyH49N3yhcIMiuf9nl0zMjqMGapzxjwCn3Sbr9unKwmN5RzmxLgfuN6CcWOSt4XTKPNKKEtnjet+tkZJopKI5y0vSqZgjL3dEAgmgVX/+wH8hoL6wqqZzcb6Yy3uUm0vqSRz4bPXNXtO8gz1gBs1mwFTCQNZcv2krrp/H9Yh/ALep3KdeHxDrF43bEGX7LziVTzeys37QqXTF7MO1XJjxN58zLLRC4USPkMRIns9xXYwPSEGIq6fB9Dp2zfosCokNbg0CG8oa+/0OgoBNiyxANVMN/LoamXgVCHyIamXlgAJypRzGcNvpS3oKkZKcvdD9ceLvxUzT/K8OcPSq5ogJacwlABgt44Ts+U7pEZ8BewncNyG7Y1I4KXZClESpfOxkzGvnrVCwBw+or9wgoE9yNgWnXL3zCvF4CQtoQSykIpfJVdX8NLJ9xvNRZzPGLKPEpLQc/RKksAy9qzt5Y85bhSgMOgj78dT5XoINEduNX1UmRXH63xAhgpKrlWSw9LcnoACTMVSMJdlTqYOi8TPHFX0ekSk737L8JtDRD5V9QA9zq94nUlSiThJx5fpYfzmDVw2ZKidvY456a4JS3dC/73bNII5lFz8npYWOA+ifQ5FIesaLIN+1dRfTanKtYt09BGzhRQks6deNlBfUyfa0qf09Z85QTB81PR0sLdCahu7DX1jfzF6oqTlq3z0PgQqMu5+xrjRW4P8P0soBrW1s0HY/jX/yjC15Lv804UjtEwx+kUypE8nbJa/WL/vx4EqmAB8ezKj7+s1efGYEHY0TXR9N/Y7BQJyHcrCoLD6ha462j7H+9f2CrKMiDGSkFbl9riake6mVQvBKYKD/P/OgyUggcj/rxMXIaKmya2tocw7ME2SS8QOvZPpjEWFbsJ9uIjTsEIPaJbdNnpFaLw0nKA6rNKnHOnW5LiqIbweqXae9NZuQC8NfCeRvkHgGmzUPvRxBc50HCVZNKk68ulJu57H3+yoWn0Q4foVuBMuHD1Gm7qb62rAB1fV6YkrBSFmPzYGHtnsui02Z5R3K2/H8BMEn4iKph1EFYCPbeHE7ujVQE/Rdc5tk74sAHNwoSmbXV4OI7uVoZvuYBaSFCUaU99HYFd19V0m1ML7TollAdcFDQ8eJ8MMWBSBpRcU+hw1K2kFHiSUsBTAY5OwSkRNxaEEGPgyF5tMiYj9vvwE9QM6wvWF8/6zkkyt1OMPNnHxOw72vGC+s1QFhnaY7LyPiX45oEjhUjFTTPTgGPvHF+eUuGpvPfRic69Eg0oIPaErgqRFBfx67RlMYaMd+C3+MM4hPNH+SHf6V3kjC00XV6iAIQxcca5N5jSAy6KwAymTQP1OYIUxk4YJgC0uS6NEi4w/dVlM2PHxFXUfeMAy/igmW3xlMFBNr/YLO0MQEq3YE2Gv/FFjnZQmmndiXjpjv4zG43SAVVfvSK8ddYXRT4XqVw70+PRGBBPafJWAX1AsiyvGD3zN4nOYOFIXuuwjEO4IcIibMSeQ7208gitnpJ8M3XsbYp1yYu3b5m16mRgZF98MJ7rzTTkyZtpfzwwUptmxRXpSNKqnOh4ERcD/7bikMkFB0jNyqfO1JTEzhxGlz8qz/kKxl4chpInJsdG7MR8/qLYbJyko4aFz+gC0Q6oe821ue7jFH3nTj4FQIxRNkfUKpSsl0k+y31oBGVuIKwrua+j5CZOBmbQdfCbDucB/LMjzvPBuQqBpPueHEQyaJQrG5X5UtPAv76Yp97jiMxisuFAHVPRxAfRuFMTBXYvsgfGgkyM5+YgK/XsCYF+NpcybMnRWy+jAbEeOhu/mqZoBZ70sAOh+rwh42GEc6MhtUvg1COILYnRlrHIDB5t3t4JQz8owQnsPzpoDY+n96Q4mG5K4PZDsJbPDv4u/C3egEEX0m1+oGN6zJXLZOQerXzL2LbLRJmgc/aRUXyqJJvWFpU0fBte9gLAVXWJpmJWcq4T6us9Ho2XNgAAEVYSUa6AAAARXhpZgAASUkqAAgAAAAGABIBAwABAAAAAQAAABoBBQABAAAAVgAAABsBBQABAAAAXgAAACgBAwABAAAAAgAAABMCAwABAAAAAQAAAGmHBAABAAAAZgAAAAAAAABIAAAAAQAAAEgAAAABAAAABgAAkAcABAAAADAyMTABkQcABAAAAAECAwAAoAcABAAAADAxMDABoAMAAQAAAP//AAACoAQAAQAAAPQBAAADoAQAAQAAAAoBAAAAAAAA;" vertex="1" parent="1">
          <mxGeometry x="318" y="850" width="124.06" height="66" as="geometry" />
        </mxCell>
        <mxCell id="rWvnj3keseH3NQzJO7Qt-29" style="edgeStyle=orthogonalEdgeStyle;rounded=0;orthogonalLoop=1;jettySize=auto;html=1;exitX=0.5;exitY=1;exitDx=0;exitDy=0;" edge="1" parent="1" source="rWvnj3keseH3NQzJO7Qt-27" target="rWvnj3keseH3NQzJO7Qt-27">
          <mxGeometry relative="1" as="geometry" />
        </mxCell>
        <mxCell id="rWvnj3keseH3NQzJO7Qt-30" value="&lt;font color=&quot;#ffffff&quot;&gt;&amp;nbsp;Backend&lt;/font&gt;" style="whiteSpace=wrap;html=1;fillColor=#000000;strokeColor=#FFFFFF;" vertex="1" parent="1">
          <mxGeometry x="540" y="720" width="120" height="60" as="geometry" />
        </mxCell>
        <mxCell id="rWvnj3keseH3NQzJO7Qt-32" value="" style="shape=image;verticalLabelPosition=bottom;labelBackgroundColor=default;verticalAlign=top;aspect=fixed;imageAspect=0;image=data:image/webp,UklGRrIRAABXRUJQVlA4WAoAAAAYAAAA8wEA8wEAQUxQSCUFAAANoLZt2xlJeto4jrFt26g0J7O2NcYP2E/jNv7BWpVZq7XsjFNj27at0rIQvHnu0RsRcNxIciRFOTw16PNG9OwDyLVHKcgo1AnrUQrSiQr/AdoiIs+/wFqRgLOiAWPFAnwVK7BVPMBV8QJTmQE8ZRawlJnAUWYDQ1kB/GQVsJOVwE1WAzPZAXjJLsBKUKPnh0n0z4CN0WlEBDiIHtJAwSLEUZQu/cfDduh4FG8oBaeyv/noANRQCtNoWac3ZlzWFl4QGBiq/86wCa9s8lb5AYZSlBpxFenqxOxqzQAXSnFK9KU0fWVCs+++OCQsMFGxTZ/XJpz2fn0NUiglyXGsKXHMxBeXar8FBAXmKc5Jf3bCoKrPNyEJtdSc1bV9ZXKa94vTYgLPZN70nfjOLu3HG/hBLTN5mUl5E8br3kVhEYFXsmAaPj+x11ef7YENarllC27/9pSg9z0RgWsy9ZQigwguqBXWrzyRCCwM/4jsMWAhF/WdW9J/PISKhGQ/3lArWu+uqzoCNdQKoutjnnkhqNf9eYcfcL29N13VZ5QNes0udsD99tdljlWfS9P1368xA264a7qrquZs1fUNvIAr7pPP8Khq03r9j6ucgEu+/dRlvDpuV62+MQwkFHPed0se9azarr62DkQoJcnmLbHVY8+GIDyMUpxi/nsQnIC4xb37/+L+jCmo0fmLRMCf9fVtjvpz/Qc5kAA52qN+mEdGI/udRitXbgpADc+shut6jh3ba9sGY/EFkOGZ1eR/+6WHDFPyr/gM384ws+FMRdsw7VE8zdZvMIzbrIbzFNtWuhHDlFF7fcbSc4yGwxT7pAz0KLnXFhOj4SDFPV07E3EazhAi9wmcIURgf0GNhlWp0NwJTnjxqi1rMpigmfyNl4W2lw7ykf4n/U/6n/Q/6X/S/6T/Sf+T/if9T/qf9D/pf9L/pP9J/5P+J/1P+p/0P+l/0v+k/0n/k/4n/U/6n/Q/6X/S/6T/Sf+T/if9T/rfg0qFE7Dq0pZcQmaWNLRnV5/3z3oGlnwFIfv+R5WXQIGv4DYRkb2BiuwPROR8BPcY199ltpyO61sM30qip8axWs7GKcNn7GP4cRyMwF7Dt+wuEcPlWFxd6zPWcP2M0aG4WvbZqpNELJeTZ3kVwS0iWYKOt0f8N8IJiB/nfqR2ns8G/DcOTwoV5QN+HKPg7t/g4PmDiFGcB/gZo7HAX5JraqFEDK8RjPmB0hyzOvNnbd9CFK8KjXkppaPiL7CmVj9B9EwGjvcB9HkNykbG1aF6fRGid370uQ1jxi2frl/kx70+N0H5iOgd1PVl4N7d1ec0ioybK/WaOyy5n+9GqBj+v+PWGTg/wdFnN67svaquiogpcjGcJrRFROEA4s/lpf962FhLGw+GW0TrZzSvGM4ZudlujvIRHJIb7dezFBd/ODdXUOIQykZa023du5wm9hSMCm8Rl0af29AKbNB+ICISkjiF0lGmtucbjVxfbvGmlXm49L12XlxiGFJKck3oTr13OfFDon+DOm5s0H4kgYlzKM6LvWNffUIiE++wwB8jrtR49wpNHET0T0EKLtHqSWjiIQruFo6L+KF3Xo3EJj6i8M7/cOLHz+4KTtxEgXqrTttCghM/UdRvIQlNXJ3NgIuk/5Jla/WdHLhFtHdmsEAVnZi6X+92gWo34QQ7CSvYRXjBDsIMVgs3WCnsYJXwgxXCEGYLR5gpLGGW8IQZwhTxClfEI2wRq/BFLMIY0YQzIglo+IuoIEAuPQQAVlA4IKQLAABwdQCdASr0AfQBPm02mEikIyKhIpRp8IANiWVu4XU+d/5B6is58fv8X+c7KLzD84P5LzkO3/zX+l/6ro6sK/43nteD/svjA9SH8I9QT9FP7X/PesB/B/QB+0P7qe9v/bP129wH+D9QD+f+gJ6g3oAeXV7Dn7i/vN///kL/af//9nH6f/o/9Nv5n+C36u/a/2cowBZQLhHuLDbhgPHVkOE9wSZLqANxSrBKOSoI9xYcT8kglHDDTadhXs/tFphr1AuEe4sOJ+SQP/rmsvvXod2qJ55eMlak1PCw34WWC1nCF0oRPySCUclQRz++efhtVC7evvboH6pEMCdIYVC9Fphr1AuEe4sGddjCuYDXg+/qK1JhxJBxqpqRC4SC8ot9+uvnbnglHI8bfhdqpMekUkU+3ZWHIuM9SCUc+FlgtZwhdKET7VB/ixpGLWopZvriDrWvQDx8x+SQSkU+jKcStnZth3UULTlacEiXpaByWeSQSjiiQSRNabXM5Gkr569Hhr7crAXCPcWD68qePwU1pQJ4iikILxx25sF9xYcT7p+DuPwtGtnO+Ce0KPcWVtgzrPJIJRgD+19if1qCeerELT7IFRmS8CUclQR2AI2cPdKDxpeH1jSxRhyLjPUglHJT/TwIWC7cXv9O7arXejw1PC8vWeSQSjAH9r7E/rUE89WIWn2QKjMl4Eo5KgjsARs4e6UHjS8PrGlijDkXGepBKOSn+ngQsF24vf6d21Wu9HhqdaLOJ+SQSa4jgt9sgRL08LwNATwtgEtgvuLDifdPwdx+Fo1s53wT2hR8euoRzGSgj3Fg+vKnj8FNaUCeIoWqvvjh/gKGQgXCOwBGzh7pQeNLw+srbMG1gnlZ5JBKOSBXnzYNNyTdA2lAnlInkrbBnWeSQSjAH9r7E/rUE89WIWn2UoGxBvmxYcT8gsyEQdUm+qKFpyrzzZ66hHMZKCPcWD68qePwU1pQJ4iikILxxaxnqQSjkp+zrMIPImF5Be9MslD9vrRc40rIj+neU7azp7ipYnMNugPxcMSXxmSgj3BnUvwrlhq5SNYPo9aWgclnkj8PEv5CW+dj5UJ+SQSbvApirPuF9LQOSzyCIJfyEt87Hy1C4R7iw4nfcyVdfYo/cIjCNlceP9gZLwmYnlZ3OxGTiTc7o6ohZKgj3FhxPyEU2FaWNl2BhL+QlvnY+WoXCPcWHE/JIJRyOXX7h0tm+paHYiFmI12KnFIJRyVBHuLDifkkEKdkZj3MpPPUn5JBKOSn6AAA/vC2Rglf6TmpiIS8Lq2s3WJzh1oRPiasLl2O4tju9So8Ogj61qRwbnb7F54pskoaBQe9EgUct/JBjc9ruQHPPOWDLWHs9cxU04se6BVgzCCBE0RmfbCZj/Ei6XLA/BXq3MgfWR//6pi///WvPA02hJbyq1wky62D/rw52FSP/9s7xAR3BQA78+//LnunhnZs7t+ItXJHvY9MVwmW8m5lDfJGLtb9fHDlY0va3Z0Pflw8Tdquh4wSFIJ/ZgoRQPHHa6xDptsuuQZwayABOja7rYP+h7txDJCwBr7E53StL4qnhdW1m7s5g6nOGyzhIeHSNg6j6fhoYPDfHl3N3xmCP7rFH5gkfyJiVTlWHt215QE3yIJT8+XzFs2lEkN9tWv216stqupyMdL2HV/6HvDKGJr07ivrKiVjoUU+oszyBWhhrb4YCEiQ+QOgnTjq2hArutF4UcCo8NB48SD6EnNIDzMutg/6Hu3EKgGIFvnRs8prXrDYZyFyI1FsEW8D1UXAN2Jcuxsk9YuriD+wsCW/txCQ401rYSPLj/T1cZr7TE4s2yCOuRlnU4Nnd76mW//wxk7ilghe+Y+FLtb9R5uAyLeIUrsAiqe8NLOuooQ63NZkgaJbTx4lwPTE55HiGTMFdYFEK1UWagFOy6LUBHSHilUH2sDKKQpMt83cc2vx6ftllBWz8JAjOqRsIYJ3IDn+3reqSQvLnyQSSY1siPkwZaxySpRdiKjNkHy37u6GbWW9A/swfvriSayjlLddbiKIG8ClFjmtx+32F0ZOiixeMJxhb0qfoMks9WSvXXoUzPxptyaSv6UUEtg7dnQ9+XDxN2q6HjBIg+eY7UjTwMjxSFTqmDQ5eoOyt79SyEjz+zBBK42FsXchRWTmpiIS8Lqb9J30T5j3tqlO6A4WKtWvxK0Hf4nVk7PDkLEoXvX24fDoUlUFxgm7+byUjQv6wRw7oHBk4zZjl3sZ3HRjr2pZKgteWR4bh6dLp4QkgywmEddMafjIz3s9XNxi400BftLzDrR7PKq6HjBIg+eY7UjTwMjxSFTqmDQ5eoOyt79SyEjz+zBBK42FuJgMd2q4ks29alCvbZxWIut0+KYrBP16JwWmgkflH6H9Uo7HPuG+jR2DAh6/tHDzrqMVThxkNPTmDgw0JQ0TpLNawbJtt/zHjjk9qnX1uTgb8Q7nZ0Pfl5MmwtVMyrN5CWPDjQXiXAV8LsvRP9wADNAdV3gXOApVAecg5YOyLzHnwhKiCA35YEzVHUga32Hx6dD0XS1vRIGt9h8elwK/OpA1vsPj0IO3NVEHT8acRc5nL6EABDYEdt632Hx6L5nJLmHQjv+lzu6HLg3L8czUT9HoQ6wj5+otEnd0OcEKZ7B6oaKfo9GK2GdWryFxBHd0OW1GGKVFzmYbRiuWfpNSnkXOZy969l0ZKHd0OMVsM2cUGhgKMO7octoApUXOZhtGK5Z+oTHa2LNllAJCC44kbOfhvuXvXtDDgyVs6kthkG+SZilVKjWWPOSFZLCmiGVQzddZqKC9J4XiS3MegBPtzjaGFW7/CEj+tzjIALmHADgaiVqU1+LYyCTe4402eok4Qjkb2h5aoJdyyZCU0+V1DJyiHAArSbkd1143j/m/y8JUwpuAvDg0+20mTdILM2LFA8akFj0OOVLmrC8wwWk6UQ2XygSebKEcOfgsGdHFrrPZ+rVrqbU4B2OCaPRLPyiWXj0cWeCNp7Wo+nZUErlP//2m37SfzK0WBHOxMbh0ZpIq7du5k2PoaeJP7y/WTFfL/QheJK2DWRqJxwe7VOuBelwFnxBTuX2ZhNkZ3bAFwzpLr7oWlek19i79Fhb8y9gZv+Tj9+IQmvjJrbrcfQYARbemeJlohtZMQ4dYrh4qZvTwGIONAgpUgXjZUbXEMHX6sNLrEHU6OZmskupLYbV4LkOLf1N/UI+y7n4qGLhRudDNM7jTwQQWentXmI7pjdqsYGh0ZU7wO2WHa////tXbhSzUhT8sMr18ib5CjYCoY2ud0qKhmlexIKVIF42VG1xDB1+rDS6xB1OjmZrJLqS2G1eC5Di39Tf1CPsu5+Khi4UbnQzTO408EEFnp7V5iO6Y3arGBodGVO8jJAF/EMqhm66zUUF6TwvEluY9ACfR0i5/5rS/WOJCXssAPLss55fsaMr84NCizPirhlo1aWkdCH7/1edab4gLNBBuLG1s2AR+ji/eGNXN17RSdR5tPEr89Iigzol8iir+YYROIqa/NymbFT7WH3FaTesNc0+2tjXZzB6CTXPvC0q7FigeNSCx6HHKlzVheYYLSdKIbL5QJPNlCOHPwWDOji11ns/Vq11NqcA7HBNHoln5RLLx6OLPBDr1WPF0Jt7eB7xAAAELrTd0ILhOlnBp1e9lS5qwvMMFpOlENl8oEnmyhHDn4LBnRxa6z2fq1a6m1OAdjgmj0Sz8oll49HFngh16rHi6E29vA94gABLwYll0dK2gUbYAdk8U9ALsiQuF7pf2cWvMJr5F0/5Fs6XEBdoAT7BBSpAvGyo2uIYOv1YaXWIOp0czNZJdSWw2rwXIcW/qb+oR9l3PxUMXCjc6GaZ3Gngggs9PavMR3TG7VYwNDoyp3kZIAAlz2SvnLTHxYPZjaKGgc+91+cLkZBU0wlw9nss+PpztX8jXm9BX4u9HUausvjyPxVf/+ssAMD+yXrIfAXdgz2VBhbQAAAAARVhJRroAAABFeGlmAABJSSoACAAAAAYAEgEDAAEAAAABAAAAGgEFAAEAAABWAAAAGwEFAAEAAABeAAAAKAEDAAEAAAACAAAAEwIDAAEAAAABAAAAaYcEAAEAAABmAAAAAAAAAEgAAAABAAAASAAAAAEAAAAGAACQBwAEAAAAMDIxMAGRBwAEAAAAAQIDAACgBwAEAAAAMDEwMAGgAwABAAAA//8AAAKgBAABAAAA9AEAAAOgBAABAAAA9AEAAAAAAAA=;" vertex="1" parent="1">
          <mxGeometry x="560" y="820" width="80" height="80" as="geometry" />
        </mxCell>
        <mxCell id="rWvnj3keseH3NQzJO7Qt-34" value="EC2" style="text;html=1;align=center;verticalAlign=middle;whiteSpace=wrap;rounded=0;" vertex="1" parent="1">
          <mxGeometry x="570" y="790" width="60" height="30" as="geometry" />
        </mxCell>
        <mxCell id="rWvnj3keseH3NQzJO7Qt-35" value="" style="shape=image;verticalLabelPosition=bottom;labelBackgroundColor=default;verticalAlign=top;aspect=fixed;imageAspect=0;image=data:image/webp,UklGRvQRAABXRUJQVlA4WAoAAAAIAAAA8wEAdgEAVlA4IBQRAACwcgCdASr0AXcBPm02lkikIyIhJpOIGIANiWlu4XShG/Of8o/27tZ/tf9h/HL3T6p/stoIfxP7Sfuf6/7bv4XvX4AX4x/JP9B+XPAbAA+sn++8K/Up8L/7v3APzE8rzwFKAX5z9Wr+l/+3+f/1Xpi/QP8z+0PwF/zb+3f9r/B+1F///cX+6vsq/ugJGXjbUBQz2fcXDPZ9xcM9n3Fwz2fcXDPZ9xcM9n3Fwz2fcWfACZ/3NLjvsCkZFGEw0jmez7i4Z7PuLhns+4uAJN4EGg8at0Ig3NhjzV8Ae4g2c21AUM9n3Fwz2fGAkVY5ShamSELyzfSJjQRefJyrSqM206OtKozbNYshNt1qmAUihF3YTT4qmLSqD3pTVK7VvXO/8eEEMO0B0EEogHQP4TJISFDoEnp3H3qbbCnzRRo5uHj5hBnaFOI/UQhNUicK9/JCk/lHG+4uGez4u+Srv5xS+oKF0INlim78QQ3s2qrU7F1aU4WlUZtqAoZ7Pi9O/PoMTyocZoc9fXatluYBhf6lE3DdBH0DUZ2NhDdchOVaVRm2n+sazYGqdd6KPuhllSoMIwKNxii8Wil62/1yQ3QUY2mSORArwzOqSqM21AUM9n3DV1q9NltwVTSW263nqj9j9OgkPHJgtt4vFeOQP0ZyWb+6bN4MA7evcdBBKIB0EEogC19vBlb1qrknywuSUoDXPln3Fwz2fcVqLySFgJW13KWIEDEWU844GYAbSEyGSLRbhLq6sY5N7ZC57f+IRklkZtp/axEQhGXlNv4Sd4wpx5ZSkav5+Z9Igj1/rHGoz9WGCqA1XYEogHQQSiAdA/A8WSQCDRZwHV8jB/MWyVRSMC+o7jjlBX6Wy+hBRP4HGg1CFKjqgCNQCUQDoIJRAOgfplxHP54M63Lenl9jHXtqWSLfamriGFDPZ9xcM9n3DSV1sxJEoPJ7nGxugh7Ciw4QrOzcUHhAYBefBg8qyBVHzVEeLhns+4uGez7S4sjmyCAtadKtQz1wq5KONUtszPtPoVolbs2SwnYX+5pdAdBBKIB0EEogCzntjQeIz1Fh7AVBzDuH4iZD+DL5Qz2fa0BKIB0CSe0/RnQjtMhFC5D+LBAIgjA/PAM9n3Fwz2fcXDPZ9pc/GN4pKcX4R2Rjg+extU4mgJRAHrBECrSqM21ARWE7ArqWzsRio8dBBKIB0EEogHQQSiAdDelEA6CCUQDoIJRAOgglEA6CCUQDoIJQiAD+/4ogAAUtxxk6M8u9Oa9P6kKFg7ch81KxYwSxCA+q069i4VDfihiqKh46UPMNhxKJ29T6e0VFZ2CeOWsClF/aa69l1EfLFH/JAkP6RMmwx0qSqPJkjxnVfiERzV+K9O5bW8Ju0J58R/Hwyw0E8xVcQtuy4n3FpSQGhHAqlZyi9lF+V9N94gEH7wUNT0h/elLq9wrGSLj/sn/8xZruqm0npRbLHctbXi2oGUHIfN98go+C79bQerTGa1Ur7DfCf4u9BPA0ffrN5C5Skm5OV2pHKu3z6SV7hvwiRpFUJxDiR6Gop9F9+26/b/ANyBu8SqmOp0dEGBukA1nTbG4I/XHY/fyDwTYtmD0YhBDj90or7KkQCn/ueOCZ1/kgX266OtB2FCBJkwAmMhPm01xenrgdgkiLkApHCH/KtUBcgjAsjQuF80/oDOIodQ7gVbAsQGQxhX4hLGK9TkAd7+O0G0as/3TIgQVJPS7WpsVqPwElJ4ofROB5o+3f42W4W2AM8To8MsBRSmHK1q9bDBiW17AM86Wu6iiZXROJV2z6UcqE2uUZGAyWt45S/DBOlu/QbmA0ygHMLBNBJmMYerkqiVh72jr3rLteJVNLLaqi0bs/sVxixwlqIrsBorltS4v7ES6nKkmZHtvPBsyQlxScdzJuQDi8v6MzD4wakkmYdyeDhpP6qFPQaU0ehyfFTjk0vPXC8yQf/wqVWvPWj2E9VZIRdzXSQAsAwmo2v+w5AavOyH8wBr546gRbQrTvvow0hW0AISdvJUrwc470uUp4VRe5rQQd0X0mIgAUAfIwCP+Yv1HN0hjIHKj6DgkL7BF2ld7u80D855msAwfsc7Yys9bZmLnTCbLv8oLjh6s19orBbKvYyeff47UuC3obYcf2hBTu/hrp5aDsZ5ELQsPYE/CMoqzllJ/LC5m8XsMCok+P+/LzPEdszkb+/FxWX+iqazTdBJb/bhL2JN9DpwXF39IbKM+qW/WWp2UZxBlseyRnI1Lt58fjLn3zYfkSeyuNv/pO1CkCmGdrTjb4JkrRU2UMXVSMa61b1MfIhHKy/Z38dvZwz7l8XbJ0VHxklQnZ3CpXs+hBTTdjS5AITe5B2us/NM9rypP0O0QPj6IcmFt3br97slSUbgt51hsD5OT/EwXDwQIXvHz5XgtMX89u5Xoj8uDj7xND6u0kK9oNV9gTfWOo5ThOCFFcgNwyiFE+TXeVGs5TH/F9Mipj2sHZFbXJclAKPgboR8ntN7tlOgTOZsE9IU9isAjKFcdZhVIK4Ye059rdTHvhXBomlYI7/FGAPp7SI+xQ0TRh0cUC/DCd8BiKad7cL0MXzoVo9VRBtCa3I5BSYweDphKN2SaJ715mTtF14MGod2f8w87vUV8Sgamvx1KDtiOI6Otpzkd3d54LinC9xxg6tKvebtwDXqeWwNtBcxgArilTWgoDYzqNvVVa9z3IFXyf2ZUdrgmN/GoLp0b2k/jP6uL8x0hTUj5txBFNoCqu9qVi+VxeOB7M+Nyoto3k263Yx9uDl3mbNWSUFiwQuc7ymaQPom6x7XQmefVCj4TlsmSqhnqYbJRMnJdnSygr47Ci1Ufd/UHCeBijAdttIjf2V93c2oyl1h4Fw2xe9ItNF+X10w0tF2cenIWa7f/PIa3Catu7ts2KB1zk9X2FWHYpm73AAP2vz/XBxCjZ/itRUgKWtfHvohzXO3B/H6/ILdW2ZZU17XnNA5uZE/SYmw/Zl5KWQoAKcBT5qSWFFGv4Sbyy2u2R4ItNeCQx18/YVGGbyvZSYVBOv6Vb5Ki6TaPBA1yxR8Zp72ffVFyaKfspZnE8UgN5p0dazrsRYs4OkZH9MVn08x7IHqhcG6Ctc1OglZxwhRyevGJpi5wtj9EKSmt0OGPIWWVPb9igY9HJWLV8z2CG3583Cf7cVNZ109BS5nCKoAjRehrifWndqviQmxHIHrxsEgx/upzldCveu1bJBWoscBULYNCts2Yp5orS+pmeEo0OsBQ0XOGG2Oo5OisHf72fQq8TmNu0RplaDNUG/2dnMmu+BuBBspnNn3srcSk0vq7zssl394Bu8zIC6RZJlgjdmzgYHFQNA6BSxWuCvhv0dJI8kvoORsldQlnJJXvr2QPa7Xa2Rn3pbT8v5zQo/KuP2W2wVzpHGAYGUM1ldhOy6NP/O4R+6USFiv33ziRwI8DBCNUsbS2tCkFJ5tuaCL6MQajGHLaLavsB6RFFoLVM0FS3Y4Hb7I3M83yDlPfivXHHLmPuPQCVa1YGXj/G3rLnlMQxFbo/XpNVBmTOHMgabF90G1o90UJ+xY2ee8qJGEoG/j1iNkdFcy/IsJRt91TrwkVjbjLQI0OTQ+zc8lTDzy9uwkUCITUk/AAunRw4DcdMYAQ6xULkSmB6MWiOv0NafiJWxJJb00x3dhzJC+utZwh5de8DfiZ3KOFrkY+ZAWfj7RcO8xs9XmpU6hIIqruQrcrfq4T825b7/Dst6HLhtKT0xr8kdyds+6Sc/cOR7jYVir6vHiBTIybSZRzcNPo7NCPFvarWepzC/RmgBw2bEzzB21eaUzFz6S4l+NkP6KUeQmb7u3wsQwHRyBO4jB0hxU9XUJbyLTS22P1QqjrILJRAAAIDruiyS7uvG7Y5v1T8lL+zyZ+3YTjI9RFRMHt+qHQ0aV+WklMiNHvKazrWR/DKnBpDrd+HEbQU5J764uG8EF/LUj+9vpsYJwzc4OapBdFG0h0SqFOesZO9rBPuVFTW3ZVX552AyDWRKdAk3beokGW3J80E6/K9BwRj4og5/cryolaD/YB3ze42AjmIMLy3UvHivexm3I1IlxgPbPdVziaUXyVH+T4A8Mg/eI7aPKp6p8c7DbEUp7/+LEEeNbGqmy7BUKMvvCzarC6g52tKEuFMY+jea1Y3CVVFQsWrKxhUCLWscucGPr9MjfmdFZQU3gJAv5NpukrbvNgtl5JfERjTfyufNRN/j2uqStg8JaANV4DQ8LQ0s7Krb0bZN9uu21IIDxU7jE2I1GkxwgeYo+pT5Mv36cGZ1vOxgcpnBvNGmJ0e0O+nQ7DAi/Zo/1DX1sAbXvXVygKBhhgYgzB3ctBMFQXfsUfGXIdmjEJhOsEzMWQ/9fzSl6+ymc6DviNFBYwfn1Aha/FU57mzkt6xg7/M1jyghr8dUP+ihPgs4pBxj6f3dYwkrdfi7jTrrhGGrMKwzfn/2v/QRF6q8jt5ty/QjnuK3ccYglwRDUT6LgWC/aFwzhCzw3jbtE+xATTDTjkm3N8iMt7rrrLtRZRPIupARAJY/QJSR0R5i5el6dtQLxX9O97DR8Vcv58CM6yIAVA5CsKyLGKtayDyROc2G9hOl1clhP4ga3XhdHyiXSG0U4WKMTumxwav/KXjrdaUn0c3tNei+UWdsNW4pveJ8ggtcDezPIAY/gu/2nrax5+/LBO/d7ZliJqsvI333kwkgBgd9t4Ogssjt9oFj3oFUdtJlwgK40mqeF6Ju227bIGHsImKji/ElPR3h2gmzV/c/VB+qO4/3JRXCytulRFLH6PvKM5njPxbkIMW6F2bffj9kmObIAIqQik8pVP1sNaAOa/kidvkOX26x4RvA1QfQuXNkQmBUX55G7lBR9QHwvmhzA37tdFNB5wElPEo9KmZQbDUd/7hD3npkA58yI7Ca+Ubtk8B+fOgVCND55Asl+Bb7q+2zLdt5iU+fHjgkluSRYGVsaoRIierrMciIc3AEMyZEZKpDMP6u+wMIs/Tl9kok9Dan5TV9zNqdJmKypRK9AL0dHq0/uDLW7lNHxbipEIwlhgK2sq3rwD/503VoZtOUERm0uaPVF7XYbqVIgDkLYvPeWv3L1FNmoqNGs3p6xhuGhC+vqXuGCNeenp6d7IoO6tq0KlEoyIWshyq4wAoxN/kfOchnaeZvRc3XWLYaXrR6gW1E+fA108P4f7AK3kPGpMDj6WfLZzu3dh4I54bjo50lMJsPcSqILINedUe8l5WAH4gJ3Xwhsc5/o66wI1eC1h3111/J4yx/rIilrmuQJPao1kAVEW2t/pn2Q42bEyH/VGh1fgX19WmQBfxeHCH5B1/yWfv4462jsuUy9ViIPYpR7cfipVunPHDI3ZSsT3giPMXjJf9dsGFKhN2cIcLK5/+ML7DGwieGA1ZH6ZgqIpdv3IS98P5zrA95AMBLrL44VbJgb42on6DTqN8Ng9MV8ujG73gosKQQ9Lfa1wEx/3Nnbk4NCVxtCLU9UIq9WB1YiWwNDV/uMjPSqAmmP7A16g928/x4+evP9/CHvJNVGizwjkwD1bFUTvDwNMIBU39ftanlKZ2Owa6A0Q5GgrfpVlWf2z5K5cU2F+UIuCchxiFqtTBfsD4IBbtqGrVlFW4Mi3a93Vom9yu30MJxya4cvzTV+RgMv4iYG932XQ6bUM2NRz+IZ8F8Jaz3DIw8uulsK+GC3RN2N1eIlPRm5hsu7W1hlKu3l3uko2KxF+jjviJj940fGkJ79ntijujAYKVrwQQmWMCRU/YN6jo0Ho5Se7xMYubuiX7BVAqIbMW49bT9ylAHnO1afOgh9UwYJquA1EL7ldKDS8cHJoqdi4MAAAAAAAARVhJRroAAABFeGlmAABJSSoACAAAAAYAEgEDAAEAAAABAAAAGgEFAAEAAABWAAAAGwEFAAEAAABeAAAAKAEDAAEAAAACAAAAEwIDAAEAAAABAAAAaYcEAAEAAABmAAAAAAAAAEgAAAABAAAASAAAAAEAAAAGAACQBwAEAAAAMDIxMAGRBwAEAAAAAQIDAACgBwAEAAAAMDEwMAGgAwABAAAA//8AAAKgBAABAAAA9AEAAAOgBAABAAAAdwEAAAAAAAA=;" vertex="1" parent="1">
          <mxGeometry x="680" y="760" width="80" height="60" as="geometry" />
        </mxCell>
        <mxCell id="rWvnj3keseH3NQzJO7Qt-36" value="&lt;font color=&quot;#ffffff&quot;&gt;Frontend/visualizaÃ§Ã£o dos dados&lt;/font&gt;" style="whiteSpace=wrap;html=1;fillColor=#000000;strokeColor=#FFFFFF;" vertex="1" parent="1">
          <mxGeometry x="780" y="720" width="120" height="60" as="geometry" />
        </mxCell>
        <mxCell id="rWvnj3keseH3NQzJO7Qt-38" value="Apache Kafka" style="text;html=1;align=center;verticalAlign=middle;whiteSpace=wrap;rounded=0;" vertex="1" parent="1">
          <mxGeometry x="690" y="830" width="60" height="30" as="geometry" />
        </mxCell>
        <mxCell id="rWvnj3keseH3NQzJO7Qt-39" value="" style="endArrow=classic;startArrow=classic;html=1;rounded=0;entryX=0;entryY=0.5;entryDx=0;entryDy=0;exitX=1;exitY=0.5;exitDx=0;exitDy=0;" edge="1" parent="1" source="rWvnj3keseH3NQzJO7Qt-30" target="rWvnj3keseH3NQzJO7Qt-36">
          <mxGeometry width="50" height="50" relative="1" as="geometry">
            <mxPoint x="700" y="760" as="sourcePoint" />
            <mxPoint x="750" y="710" as="targetPoint" />
          </mxGeometry>
        </mxCell>
        <mxCell id="rWvnj3keseH3NQzJO7Qt-40" value="Sistema de filas" style="text;html=1;align=center;verticalAlign=middle;whiteSpace=wrap;rounded=0;" vertex="1" parent="1">
          <mxGeometry x="690" y="720" width="60" height="30" as="geometry" />
        </mxCell>
        <mxCell id="rWvnj3keseH3NQzJO7Qt-44" value="" style="shape=image;verticalLabelPosition=bottom;labelBackgroundColor=default;verticalAlign=top;aspect=fixed;imageAspect=0;image=data:image/webp,UklGRvQRAABXRUJQVlA4WAoAAAAIAAAA8wEAdgEAVlA4IBQRAACwcgCdASr0AXcBPm02lkikIyIhJpOIGIANiWlu4XShG/Of8o/27tZ/tf9h/HL3T6p/stoIfxP7Sfuf6/7bv4XvX4AX4x/JP9B+XPAbAA+sn++8K/Up8L/7v3APzE8rzwFKAX5z9Wr+l/+3+f/1Xpi/QP8z+0PwF/zb+3f9r/B+1F///cX+6vsq/ugJGXjbUBQz2fcXDPZ9xcM9n3Fwz2fcXDPZ9xcM9n3Fwz2fcWfACZ/3NLjvsCkZFGEw0jmez7i4Z7PuLhns+4uAJN4EGg8at0Ig3NhjzV8Ae4g2c21AUM9n3Fwz2fGAkVY5ShamSELyzfSJjQRefJyrSqM206OtKozbNYshNt1qmAUihF3YTT4qmLSqD3pTVK7VvXO/8eEEMO0B0EEogHQP4TJISFDoEnp3H3qbbCnzRRo5uHj5hBnaFOI/UQhNUicK9/JCk/lHG+4uGez4u+Srv5xS+oKF0INlim78QQ3s2qrU7F1aU4WlUZtqAoZ7Pi9O/PoMTyocZoc9fXatluYBhf6lE3DdBH0DUZ2NhDdchOVaVRm2n+sazYGqdd6KPuhllSoMIwKNxii8Wil62/1yQ3QUY2mSORArwzOqSqM21AUM9n3DV1q9NltwVTSW263nqj9j9OgkPHJgtt4vFeOQP0ZyWb+6bN4MA7evcdBBKIB0EEogC19vBlb1qrknywuSUoDXPln3Fwz2fcVqLySFgJW13KWIEDEWU844GYAbSEyGSLRbhLq6sY5N7ZC57f+IRklkZtp/axEQhGXlNv4Sd4wpx5ZSkav5+Z9Igj1/rHGoz9WGCqA1XYEogHQQSiAdA/A8WSQCDRZwHV8jB/MWyVRSMC+o7jjlBX6Wy+hBRP4HGg1CFKjqgCNQCUQDoIJRAOgfplxHP54M63Lenl9jHXtqWSLfamriGFDPZ9xcM9n3DSV1sxJEoPJ7nGxugh7Ciw4QrOzcUHhAYBefBg8qyBVHzVEeLhns+4uGez7S4sjmyCAtadKtQz1wq5KONUtszPtPoVolbs2SwnYX+5pdAdBBKIB0EEogCzntjQeIz1Fh7AVBzDuH4iZD+DL5Qz2fa0BKIB0CSe0/RnQjtMhFC5D+LBAIgjA/PAM9n3Fwz2fcXDPZ9pc/GN4pKcX4R2Rjg+extU4mgJRAHrBECrSqM21ARWE7ArqWzsRio8dBBKIB0EEogHQQSiAdDelEA6CCUQDoIJRAOgglEA6CCUQDoIJQiAD+/4ogAAUtxxk6M8u9Oa9P6kKFg7ch81KxYwSxCA+q069i4VDfihiqKh46UPMNhxKJ29T6e0VFZ2CeOWsClF/aa69l1EfLFH/JAkP6RMmwx0qSqPJkjxnVfiERzV+K9O5bW8Ju0J58R/Hwyw0E8xVcQtuy4n3FpSQGhHAqlZyi9lF+V9N94gEH7wUNT0h/elLq9wrGSLj/sn/8xZruqm0npRbLHctbXi2oGUHIfN98go+C79bQerTGa1Ur7DfCf4u9BPA0ffrN5C5Skm5OV2pHKu3z6SV7hvwiRpFUJxDiR6Gop9F9+26/b/ANyBu8SqmOp0dEGBukA1nTbG4I/XHY/fyDwTYtmD0YhBDj90or7KkQCn/ueOCZ1/kgX266OtB2FCBJkwAmMhPm01xenrgdgkiLkApHCH/KtUBcgjAsjQuF80/oDOIodQ7gVbAsQGQxhX4hLGK9TkAd7+O0G0as/3TIgQVJPS7WpsVqPwElJ4ofROB5o+3f42W4W2AM8To8MsBRSmHK1q9bDBiW17AM86Wu6iiZXROJV2z6UcqE2uUZGAyWt45S/DBOlu/QbmA0ygHMLBNBJmMYerkqiVh72jr3rLteJVNLLaqi0bs/sVxixwlqIrsBorltS4v7ES6nKkmZHtvPBsyQlxScdzJuQDi8v6MzD4wakkmYdyeDhpP6qFPQaU0ehyfFTjk0vPXC8yQf/wqVWvPWj2E9VZIRdzXSQAsAwmo2v+w5AavOyH8wBr546gRbQrTvvow0hW0AISdvJUrwc470uUp4VRe5rQQd0X0mIgAUAfIwCP+Yv1HN0hjIHKj6DgkL7BF2ld7u80D855msAwfsc7Yys9bZmLnTCbLv8oLjh6s19orBbKvYyeff47UuC3obYcf2hBTu/hrp5aDsZ5ELQsPYE/CMoqzllJ/LC5m8XsMCok+P+/LzPEdszkb+/FxWX+iqazTdBJb/bhL2JN9DpwXF39IbKM+qW/WWp2UZxBlseyRnI1Lt58fjLn3zYfkSeyuNv/pO1CkCmGdrTjb4JkrRU2UMXVSMa61b1MfIhHKy/Z38dvZwz7l8XbJ0VHxklQnZ3CpXs+hBTTdjS5AITe5B2us/NM9rypP0O0QPj6IcmFt3br97slSUbgt51hsD5OT/EwXDwQIXvHz5XgtMX89u5Xoj8uDj7xND6u0kK9oNV9gTfWOo5ThOCFFcgNwyiFE+TXeVGs5TH/F9Mipj2sHZFbXJclAKPgboR8ntN7tlOgTOZsE9IU9isAjKFcdZhVIK4Ye059rdTHvhXBomlYI7/FGAPp7SI+xQ0TRh0cUC/DCd8BiKad7cL0MXzoVo9VRBtCa3I5BSYweDphKN2SaJ715mTtF14MGod2f8w87vUV8Sgamvx1KDtiOI6Otpzkd3d54LinC9xxg6tKvebtwDXqeWwNtBcxgArilTWgoDYzqNvVVa9z3IFXyf2ZUdrgmN/GoLp0b2k/jP6uL8x0hTUj5txBFNoCqu9qVi+VxeOB7M+Nyoto3k263Yx9uDl3mbNWSUFiwQuc7ymaQPom6x7XQmefVCj4TlsmSqhnqYbJRMnJdnSygr47Ci1Ufd/UHCeBijAdttIjf2V93c2oyl1h4Fw2xe9ItNF+X10w0tF2cenIWa7f/PIa3Catu7ts2KB1zk9X2FWHYpm73AAP2vz/XBxCjZ/itRUgKWtfHvohzXO3B/H6/ILdW2ZZU17XnNA5uZE/SYmw/Zl5KWQoAKcBT5qSWFFGv4Sbyy2u2R4ItNeCQx18/YVGGbyvZSYVBOv6Vb5Ki6TaPBA1yxR8Zp72ffVFyaKfspZnE8UgN5p0dazrsRYs4OkZH9MVn08x7IHqhcG6Ctc1OglZxwhRyevGJpi5wtj9EKSmt0OGPIWWVPb9igY9HJWLV8z2CG3583Cf7cVNZ109BS5nCKoAjRehrifWndqviQmxHIHrxsEgx/upzldCveu1bJBWoscBULYNCts2Yp5orS+pmeEo0OsBQ0XOGG2Oo5OisHf72fQq8TmNu0RplaDNUG/2dnMmu+BuBBspnNn3srcSk0vq7zssl394Bu8zIC6RZJlgjdmzgYHFQNA6BSxWuCvhv0dJI8kvoORsldQlnJJXvr2QPa7Xa2Rn3pbT8v5zQo/KuP2W2wVzpHGAYGUM1ldhOy6NP/O4R+6USFiv33ziRwI8DBCNUsbS2tCkFJ5tuaCL6MQajGHLaLavsB6RFFoLVM0FS3Y4Hb7I3M83yDlPfivXHHLmPuPQCVa1YGXj/G3rLnlMQxFbo/XpNVBmTOHMgabF90G1o90UJ+xY2ee8qJGEoG/j1iNkdFcy/IsJRt91TrwkVjbjLQI0OTQ+zc8lTDzy9uwkUCITUk/AAunRw4DcdMYAQ6xULkSmB6MWiOv0NafiJWxJJb00x3dhzJC+utZwh5de8DfiZ3KOFrkY+ZAWfj7RcO8xs9XmpU6hIIqruQrcrfq4T825b7/Dst6HLhtKT0xr8kdyds+6Sc/cOR7jYVir6vHiBTIybSZRzcNPo7NCPFvarWepzC/RmgBw2bEzzB21eaUzFz6S4l+NkP6KUeQmb7u3wsQwHRyBO4jB0hxU9XUJbyLTS22P1QqjrILJRAAAIDruiyS7uvG7Y5v1T8lL+zyZ+3YTjI9RFRMHt+qHQ0aV+WklMiNHvKazrWR/DKnBpDrd+HEbQU5J764uG8EF/LUj+9vpsYJwzc4OapBdFG0h0SqFOesZO9rBPuVFTW3ZVX552AyDWRKdAk3beokGW3J80E6/K9BwRj4og5/cryolaD/YB3ze42AjmIMLy3UvHivexm3I1IlxgPbPdVziaUXyVH+T4A8Mg/eI7aPKp6p8c7DbEUp7/+LEEeNbGqmy7BUKMvvCzarC6g52tKEuFMY+jea1Y3CVVFQsWrKxhUCLWscucGPr9MjfmdFZQU3gJAv5NpukrbvNgtl5JfERjTfyufNRN/j2uqStg8JaANV4DQ8LQ0s7Krb0bZN9uu21IIDxU7jE2I1GkxwgeYo+pT5Mv36cGZ1vOxgcpnBvNGmJ0e0O+nQ7DAi/Zo/1DX1sAbXvXVygKBhhgYgzB3ctBMFQXfsUfGXIdmjEJhOsEzMWQ/9fzSl6+ymc6DviNFBYwfn1Aha/FU57mzkt6xg7/M1jyghr8dUP+ihPgs4pBxj6f3dYwkrdfi7jTrrhGGrMKwzfn/2v/QRF6q8jt5ty/QjnuK3ccYglwRDUT6LgWC/aFwzhCzw3jbtE+xATTDTjkm3N8iMt7rrrLtRZRPIupARAJY/QJSR0R5i5el6dtQLxX9O97DR8Vcv58CM6yIAVA5CsKyLGKtayDyROc2G9hOl1clhP4ga3XhdHyiXSG0U4WKMTumxwav/KXjrdaUn0c3tNei+UWdsNW4pveJ8ggtcDezPIAY/gu/2nrax5+/LBO/d7ZliJqsvI333kwkgBgd9t4Ogssjt9oFj3oFUdtJlwgK40mqeF6Ju227bIGHsImKji/ElPR3h2gmzV/c/VB+qO4/3JRXCytulRFLH6PvKM5njPxbkIMW6F2bffj9kmObIAIqQik8pVP1sNaAOa/kidvkOX26x4RvA1QfQuXNkQmBUX55G7lBR9QHwvmhzA37tdFNB5wElPEo9KmZQbDUd/7hD3npkA58yI7Ca+Ubtk8B+fOgVCND55Asl+Bb7q+2zLdt5iU+fHjgkluSRYGVsaoRIierrMciIc3AEMyZEZKpDMP6u+wMIs/Tl9kok9Dan5TV9zNqdJmKypRK9AL0dHq0/uDLW7lNHxbipEIwlhgK2sq3rwD/503VoZtOUERm0uaPVF7XYbqVIgDkLYvPeWv3L1FNmoqNGs3p6xhuGhC+vqXuGCNeenp6d7IoO6tq0KlEoyIWshyq4wAoxN/kfOchnaeZvRc3XWLYaXrR6gW1E+fA108P4f7AK3kPGpMDj6WfLZzu3dh4I54bjo50lMJsPcSqILINedUe8l5WAH4gJ3Xwhsc5/o66wI1eC1h3111/J4yx/rIilrmuQJPao1kAVEW2t/pn2Q42bEyH/VGh1fgX19WmQBfxeHCH5B1/yWfv4462jsuUy9ViIPYpR7cfipVunPHDI3ZSsT3giPMXjJf9dsGFKhN2cIcLK5/+ML7DGwieGA1ZH6ZgqIpdv3IS98P5zrA95AMBLrL44VbJgb42on6DTqN8Ng9MV8ujG73gosKQQ9Lfa1wEx/3Nnbk4NCVxtCLU9UIq9WB1YiWwNDV/uMjPSqAmmP7A16g928/x4+evP9/CHvJNVGizwjkwD1bFUTvDwNMIBU39ftanlKZ2Owa6A0Q5GgrfpVlWf2z5K5cU2F+UIuCchxiFqtTBfsD4IBbtqGrVlFW4Mi3a93Vom9yu30MJxya4cvzTV+RgMv4iYG932XQ6bUM2NRz+IZ8F8Jaz3DIw8uulsK+GC3RN2N1eIlPRm5hsu7W1hlKu3l3uko2KxF+jjviJj940fGkJ79ntijujAYKVrwQQmWMCRU/YN6jo0Ho5Se7xMYubuiX7BVAqIbMW49bT9ylAHnO1afOgh9UwYJquA1EL7ldKDS8cHJoqdi4MAAAAAAAARVhJRroAAABFeGlmAABJSSoACAAAAAYAEgEDAAEAAAABAAAAGgEFAAEAAABWAAAAGwEFAAEAAABeAAAAKAEDAAEAAAACAAAAEwIDAAEAAAABAAAAaYcEAAEAAABmAAAAAAAAAEgAAAABAAAASAAAAAEAAAAGAACQBwAEAAAAMDIxMAGRBwAEAAAAAQIDAACgBwAEAAAAMDEwMAGgAwABAAAA//8AAAKgBAABAAAA9AEAAAOgBAABAAAAdwEAAAAAAAA=;" vertex="1" parent="1">
          <mxGeometry x="434.06" y="760" width="80" height="60" as="geometry" />
        </mxCell>
        <mxCell id="rWvnj3keseH3NQzJO7Qt-45" value="Apache Kafka" style="text;html=1;align=center;verticalAlign=middle;whiteSpace=wrap;rounded=0;" vertex="1" parent="1">
          <mxGeometry x="444.06" y="830" width="60" height="30" as="geometry" />
        </mxCell>
        <mxCell id="rWvnj3keseH3NQzJO7Qt-46" value="" style="endArrow=classic;startArrow=classic;html=1;rounded=0;entryX=0;entryY=0.5;entryDx=0;entryDy=0;" edge="1" parent="1" target="rWvnj3keseH3NQzJO7Qt-30">
          <mxGeometry width="50" height="50" relative="1" as="geometry">
            <mxPoint x="410" y="750" as="sourcePoint" />
            <mxPoint x="500" y="750" as="targetPoint" />
          </mxGeometry>
        </mxCell>
        <mxCell id="rWvnj3keseH3NQzJO7Qt-47" value="Sistema de filas" style="text;html=1;align=center;verticalAlign=middle;whiteSpace=wrap;rounded=0;" vertex="1" parent="1">
          <mxGeometry x="444.06" y="720" width="60" height="30" as="geometry" />
        </mxCell>
      </root>
    </mxGraphModel>
  </diagram>
</mxfile>
